solid SensorBar_4
facet normal -0.0 1.0 -0.0
  outer loop
    vertex 10.656210263661237 -12.058031421751163 1.7563091000000002
    vertex 26.410041771004508 -12.058031421751163 -6.2636908999999905
    vertex 10.656210263661237 -12.058031421751163 -6.263690899999997
  endloop
endfacet
facet normal -0.0 1.0 -0.0
  outer loop
    vertex 26.410041771004508 -12.058031421751163 -6.2636908999999905
    vertex 10.656210263661237 -12.058031421751163 1.7563091000000002
    vertex 26.410041771004504 -12.058031421751163 1.7563091000000097
  endloop
endfacet
facet normal 0.0 -1.0 0.0
  outer loop
    vertex 26.410041771004508 -86.64818362175116 -6.2636908999999905
    vertex 9.45458726366121 -86.64818362175116 1.7563091000000002
    vertex 9.45458726366121 -86.64818362175116 -6.263690899999997
  endloop
endfacet
facet normal 0.0 -1.0 0.0
  outer loop
    vertex 9.45458726366121 -86.64818362175116 1.7563091000000002
    vertex 26.410041771004508 -86.64818362175116 -6.2636908999999905
    vertex 26.410041771004504 -86.64818362175116 1.7563091000000097
  endloop
endfacet
facet normal -1.0 0.0 0.0
  outer loop
    vertex 9.45458726366121 -82.25811962175113 1.7563091000000002
    vertex 9.45458726366121 -86.64818362175116 -6.263690899999997
    vertex 9.45458726366121 -86.64818362175116 1.7563091000000002
  endloop
endfacet
facet normal -1.0 0.0 0.0
  outer loop
    vertex 9.45458726366121 -86.64818362175116 -6.263690899999997
    vertex 9.45458726366121 -82.25811962175113 1.7563091000000002
    vertex 9.45458726366121 -82.25811962175113 -6.263690899999997
  endloop
endfacet
facet normal -0.0 1.0 -0.0
  outer loop
    vertex 9.45458726366121 -82.25811962175113 1.7563091000000002
    vertex 16.641727446359756 -82.25811962175113 -6.263690899999997
    vertex 9.45458726366121 -82.25811962175113 -6.263690899999997
  endloop
endfacet
facet normal -0.0 1.0 -0.0
  outer loop
    vertex 16.641727446359756 -82.25811962175113 -6.263690899999997
    vertex 9.45458726366121 -82.25811962175113 1.7563091000000002
    vertex 12.235935463661225 -82.25811962175113 -0.2436909
  endloop
endfacet
facet normal -0.0 1.0 -0.0
  outer loop
    vertex 12.235935463661225 -82.25811962175113 -0.2436909
    vertex 9.45458726366121 -82.25811962175113 1.7563091000000002
    vertex 12.235935463661225 -82.25811962175113 1.7563091000000002
  endloop
endfacet
facet normal -0.0 1.0 -0.0
  outer loop
    vertex 16.641727446359752 -82.25811962175113 -0.24369089999999802
    vertex 16.641727446359756 -82.25811962175113 -6.263690899999997
    vertex 12.235935463661225 -82.25811962175113 -0.2436909
  endloop
endfacet
facet normal -1.0 0.0 0.0
  outer loop
    vertex 12.235935463661225 -71.43245161851983 1.7563091000000002
    vertex 12.235935463661225 -82.25811962175113 -0.2436909
    vertex 12.235935463661225 -82.25811962175113 1.7563091000000002
  endloop
endfacet
facet normal -1.0 0.0 0.0
  outer loop
    vertex 12.235935463661225 -82.25811962175113 -0.2436909
    vertex 12.235935463661225 -71.43245161851983 1.7563091000000002
    vertex 12.235935463661225 -71.43245161851983 -0.2436909
  endloop
endfacet
facet normal -0.0 -1.0 -2.5959946276875568e-21
  outer loop
    vertex 12.235935463661225 -71.43245161851983 1.7563091000000002
    vertex 9.45458726366121 -71.43245161851983 -0.2436909
    vertex 12.235935463661225 -71.43245161851983 -0.2436909
  endloop
endfacet
facet normal -0.0 -1.0 -2.5959946276875568e-21
  outer loop
    vertex 9.45458726366121 -71.43245161851983 -0.2436909
    vertex 12.235935463661225 -71.43245161851983 1.7563091000000002
    vertex 9.45458726366121 -71.43245161851983 1.7563091000000002
  endloop
endfacet
facet normal -1.0 0.0 3.3040172027215583e-18
  outer loop
    vertex 9.45458726366121 -59.22648542463507 1.7563091000000002
    vertex 9.45458726366121 -71.43245161851983 -0.2436909
    vertex 9.45458726366121 -71.43245161851983 1.7563091000000002
  endloop
endfacet
facet normal -1.0 0.0 3.3040172027215583e-18
  outer loop
    vertex 9.45458726366121 -71.43245161851983 -0.2436909
    vertex 9.45458726366121 -59.22648542463507 1.7563091000000002
    vertex 9.45458726366121 -59.22648542463507 -0.2436909
  endloop
endfacet
facet normal 0.0 1.0 2.5959946276875568e-21
  outer loop
    vertex 9.45458726366121 -59.22648542463507 1.7563091000000002
    vertex 14.992856763661276 -59.22648542463507 -0.2436909
    vertex 9.45458726366121 -59.22648542463507 -0.2436909
  endloop
endfacet
facet normal 0.0 1.0 2.5959946276875568e-21
  outer loop
    vertex 14.992856763661276 -59.22648542463507 -0.2436909
    vertex 9.45458726366121 -59.22648542463507 1.7563091000000002
    vertex 14.992856763661276 -59.22648542463507 1.7563091000000002
  endloop
endfacet
facet normal -1.0 0.0 3.3040172027215583e-18
  outer loop
    vertex 14.992856763661276 -30.72981827234664 1.7563091000000002
    vertex 14.992856763661276 -59.22648542463507 -0.2436909
    vertex 14.992856763661276 -59.22648542463507 1.7563091000000002
  endloop
endfacet
facet normal -1.0 0.0 3.3040172027215583e-18
  outer loop
    vertex 14.992856763661276 -59.22648542463507 -0.2436909
    vertex 14.992856763661276 -30.72981827234664 1.7563091000000002
    vertex 14.992856763661276 -30.72981827234664 -0.2436909
  endloop
endfacet
facet normal -0.0 -1.0 -2.595994627687557e-21
  outer loop
    vertex 14.992856763661276 -30.72981827234664 1.7563091000000002
    vertex 10.234844063661223 -30.72981827234664 -0.2436909
    vertex 14.992856763661276 -30.72981827234664 -0.2436909
  endloop
endfacet
facet normal -0.0 -1.0 -2.595994627687557e-21
  outer loop
    vertex 10.234844063661223 -30.72981827234664 -0.2436909
    vertex 14.992856763661276 -30.72981827234664 1.7563091000000002
    vertex 10.234844063661223 -30.72981827234664 1.7563091000000002
  endloop
endfacet
facet normal -1.0 0.0 3.304017202721558e-18
  outer loop
    vertex 10.234844063661223 -22.949923772346636 1.7563091000000002
    vertex 10.234844063661223 -30.72981827234664 -0.2436909
    vertex 10.234844063661223 -30.72981827234664 1.7563091000000002
  endloop
endfacet
facet normal -1.0 0.0 3.304017202721558e-18
  outer loop
    vertex 10.234844063661223 -30.72981827234664 -0.2436909
    vertex 10.234844063661223 -22.949923772346636 1.7563091000000002
    vertex 10.234844063661223 -22.949923772346636 -0.2436909
  endloop
endfacet
facet normal 0.0 1.0 2.5959946276875568e-21
  outer loop
    vertex 10.234844063661223 -22.949923772346636 1.7563091000000002
    vertex 12.96208176366128 -22.949923772346636 -0.2436909
    vertex 10.234844063661223 -22.949923772346636 -0.2436909
  endloop
endfacet
facet normal 0.0 1.0 2.5959946276875568e-21
  outer loop
    vertex 12.96208176366128 -22.949923772346636 -0.2436909
    vertex 10.234844063661223 -22.949923772346636 1.7563091000000002
    vertex 12.96208176366128 -22.949923772346636 1.7563091000000002
  endloop
endfacet
facet normal -1.0 0.0 0.0
  outer loop
    vertex 12.96208176366128 -16.643121872346644 1.7563091000000002
    vertex 12.96208176366128 -22.949923772346636 -0.2436909
    vertex 12.96208176366128 -22.949923772346636 1.7563091000000002
  endloop
endfacet
facet normal -1.0 0.0 0.0
  outer loop
    vertex 12.96208176366128 -22.949923772346636 -0.2436909
    vertex 12.96208176366128 -16.643121872346644 1.7563091000000002
    vertex 12.96208176366128 -16.643121872346644 -0.2436909
  endloop
endfacet
facet normal 3.5176838954547554e-16 -7.713660706894997e-17 -1.0
  outer loop
    vertex 10.656210263661237 -12.058031421751163 -6.263690899999997
    vertex 16.641727446359756 -16.643121872346644 -6.263690899999994
    vertex 10.522271663661222 -16.643121872346644 -6.263690899999997
  endloop
endfacet
facet normal 3.5176838954547554e-16 -7.713660706894997e-17 -1.0
  outer loop
    vertex 16.641727446359756 -16.643121872346644 -6.263690899999994
    vertex 10.656210263661237 -12.058031421751163 -6.263690899999997
    vertex 26.410041771004508 -12.058031421751163 -6.2636908999999905
  endloop
endfacet
facet normal 3.5176838954547554e-16 -7.713660706894997e-17 -1.0
  outer loop
    vertex 16.641727446359756 -16.643121872346644 -6.263690899999994
    vertex 26.410041771004508 -12.058031421751163 -6.2636908999999905
    vertex 16.641727446359756 -22.57746624518307 -6.263690899999994
  endloop
endfacet
facet normal 3.5176838954547554e-16 -7.713660706894997e-17 -1.0
  outer loop
    vertex 16.641727446359756 -22.57746624518307 -6.263690899999994
    vertex 26.410041771004508 -12.058031421751163 -6.2636908999999905
    vertex 26.410041771004508 -22.57746624518307 -6.2636908999999905
  endloop
endfacet
facet normal -1.0 -1.900777107210611e-16 -5.621195646274881e-16
  outer loop
    vertex 16.641727446359752 -16.643121872346644 -0.24369089999999619
    vertex 16.641727446359756 -22.57746624518307 -6.263690899999994
    vertex 16.641727446359756 -22.57746624518307 -0.243690899999996
  endloop
endfacet
facet normal -1.0 -1.900777107210611e-16 -5.621195646274881e-16
  outer loop
    vertex 16.641727446359756 -22.57746624518307 -6.263690899999994
    vertex 16.641727446359752 -16.643121872346644 -0.24369089999999619
    vertex 16.641727446359756 -16.643121872346644 -6.263690899999994
  endloop
endfacet
facet normal 1.0 0.0 0.0
  outer loop
    vertex 18.650041771004506 -19.620526162063094 -2.9313477652865454
    vertex 18.650041771004506 -19.65089918251817 -1.6893876902311105
    vertex 18.650041771004506 -19.717466245183072 -2.3123670697599197
  endloop
endfacet
facet normal 1.0 0.0 0.0
  outer loop
    vertex 18.650041771004506 -19.65089918251817 -1.6893876902311105
    vertex 18.650041771004506 -19.620526162063094 -2.9313477652865454
    vertex 18.650041771004506 -19.425361409381733 -1.1048646418929031
  endloop
endfacet
facet normal 1.0 0.0 0.0
  outer loop
    vertex 18.650041771004506 -19.425361409381733 -1.1048646418929031
    vertex 18.650041771004506 -19.620526162063094 -2.9313477652865454
    vertex 18.650041771004506 -19.366685239621802 -3.504147265324812
  endloop
endfacet
facet normal 1.0 0.0 0.0
  outer loop
    vertex 18.650041771004506 -19.425361409381733 -1.1048646418929031
    vertex 18.650041771004506 -19.366685239621802 -3.504147265324812
    vertex 18.650041771004506 -19.056222952294213 -0.598632204519537
  endloop
endfacet
facet normal 1.0 0.0 0.0
  outer loop
    vertex 18.650041771004506 -19.056222952294213 -0.598632204519537
    vertex 18.650041771004506 -19.366685239621802 -3.504147265324812
    vertex 18.650041771004506 -18.973242317231616 -3.9917302305430424
  endloop
endfacet
facet normal 1.0 0.0 0.0
  outer loop
    vertex 18.650041771004506 -19.056222952294213 -0.598632204519537
    vertex 18.650041771004506 -18.973242317231616 -3.9917302305430424
    vertex 18.650041771004506 -18.568639987075983 -0.20518928212934812
  endloop
endfacet
facet normal 1.0 0.0 0.0
  outer loop
    vertex 18.650041771004506 -18.568639987075983 -0.20518928212934812
    vertex 18.650041771004506 -18.973242317231616 -3.9917302305430424
    vertex 18.650041771004506 -18.46700987985825 -4.360868687630562
  endloop
endfacet
facet normal 1.0 0.0 0.0
  outer loop
    vertex 18.650041771004506 -18.568639987075983 -0.20518928212934812
    vertex 18.650041771004506 -18.46700987985825 -4.360868687630562
    vertex 18.650041771004506 -17.995840487037718 0.04865164031194198
  endloop
endfacet
facet normal 1.0 0.0 0.0
  outer loop
    vertex 18.650041771004506 -17.995840487037718 0.04865164031194198
    vertex 18.650041771004506 -18.46700987985825 -4.360868687630562
    vertex 18.650041771004506 -17.88248683152004 -4.586406460766999
  endloop
endfacet
facet normal 1.0 0.0 0.0
  outer loop
    vertex 18.650041771004506 -17.995840487037718 0.04865164031194198
    vertex 18.650041771004506 -17.88248683152004 -4.586406460766999
    vertex 18.650041771004506 -17.37685979151109 0.14559172343191903
  endloop
endfacet
facet normal 1.0 0.0 0.0
  outer loop
    vertex 18.650041771004506 -17.37685979151109 0.14559172343191903
    vertex 18.650041771004506 -17.88248683152004 -4.586406460766999
    vertex 18.650041771004506 -17.259507451991233 -4.6529735234319
  endloop
endfacet
facet normal 1.0 0.0 0.0
  outer loop
    vertex 18.650041771004506 -17.37685979151109 0.14559172343191903
    vertex 18.650041771004506 -17.259507451991233 -4.6529735234319
    vertex 18.650041771004506 -16.75388041198228 0.07902466076701883
  endloop
endfacet
facet normal 1.0 0.0 0.0
  outer loop
    vertex 18.650041771004506 -16.75388041198228 0.07902466076701883
    vertex 18.650041771004506 -17.259507451991233 -4.6529735234319
    vertex 18.650041771004506 -16.640526756464606 -4.556033440311924
  endloop
endfacet
facet normal 1.0 0.0 0.0
  outer loop
    vertex 18.650041771004506 -16.75388041198228 0.07902466076701883
    vertex 18.650041771004506 -16.640526756464606 -4.556033440311924
    vertex 18.650041771004506 -16.169357363644075 -0.1465131123694187
  endloop
endfacet
facet normal 1.0 0.0 0.0
  outer loop
    vertex 18.650041771004506 -16.169357363644075 -0.1465131123694187
    vertex 18.650041771004506 -16.640526756464606 -4.556033440311924
    vertex 18.650041771004506 -16.06772725642634 -4.302192517870633
  endloop
endfacet
facet normal 1.0 0.0 0.0
  outer loop
    vertex 18.650041771004506 -16.169357363644075 -0.1465131123694187
    vertex 18.650041771004506 -16.06772725642634 -4.302192517870633
    vertex 18.650041771004506 -15.66312492627071 -0.5156515694569377
  endloop
endfacet
facet normal 1.0 0.0 0.0
  outer loop
    vertex 18.650041771004506 -15.66312492627071 -0.5156515694569377
    vertex 18.650041771004506 -16.06772725642634 -4.302192517870633
    vertex 18.650041771004506 -15.580144291208109 -3.9087495954804448
  endloop
endfacet
facet normal 1.0 0.0 0.0
  outer loop
    vertex 18.650041771004506 -15.66312492627071 -0.5156515694569377
    vertex 18.650041771004506 -15.580144291208109 -3.9087495954804448
    vertex 18.650041771004506 -15.269682003880519 -1.0032345346751694
  endloop
endfacet
facet normal 1.0 0.0 0.0
  outer loop
    vertex 18.650041771004506 -15.269682003880519 -1.0032345346751694
    vertex 18.650041771004506 -15.580144291208109 -3.9087495954804448
    vertex 18.650041771004506 -15.21100583412059 -3.402517158107079
  endloop
endfacet
facet normal 1.0 0.0 0.0
  outer loop
    vertex 18.650041771004506 -15.269682003880519 -1.0032345346751694
    vertex 18.650041771004506 -15.21100583412059 -3.402517158107079
    vertex 18.650041771004506 -15.015841081439229 -1.576034034713436
  endloop
endfacet
facet normal 1.0 0.0 0.0
  outer loop
    vertex 18.650041771004506 -15.015841081439229 -1.576034034713436
    vertex 18.650041771004506 -15.21100583412059 -3.402517158107079
    vertex 18.650041771004506 -14.985468060984152 -2.8179941097688714
  endloop
endfacet
facet normal 1.0 0.0 0.0
  outer loop
    vertex 18.650041771004506 -15.015841081439229 -1.576034034713436
    vertex 18.650041771004506 -14.985468060984152 -2.8179941097688714
    vertex 18.650041771004506 -14.918900998319252 -2.1950147302400618
  endloop
endfacet
facet normal -0.0 0.9943396687491093 -0.10624793245946781
  outer loop
    vertex 18.650041771004506 -19.65089918251817 -1.6893876902311105
    vertex 26.410041771004504 -19.717466245183072 -2.3123670697599197
    vertex 18.650041771004506 -19.717466245183072 -2.3123670697599197
  endloop
endfacet
facet normal -0.0 0.9943396687491093 -0.10624793245946781
  outer loop
    vertex 26.410041771004504 -19.717466245183072 -2.3123670697599197
    vertex 18.650041771004506 -19.65089918251817 -1.6893876902311105
    vertex 26.410041771004504 -19.65089918251817 -1.6893876902311105
  endloop
endfacet
facet normal 0.0 0.9879573545717586 0.15472642162078412
  outer loop
    vertex 18.650041771004506 -19.717466245183072 -2.3123670697599197
    vertex 26.410041771004504 -19.620526162063094 -2.9313477652865454
    vertex 18.650041771004506 -19.620526162063094 -2.9313477652865454
  endloop
endfacet
facet normal 0.0 0.9879573545717586 0.15472642162078412
  outer loop
    vertex 26.410041771004504 -19.620526162063094 -2.9313477652865454
    vertex 18.650041771004506 -19.717466245183072 -2.3123670697599197
    vertex 26.410041771004504 -19.717466245183072 -2.3123670697599197
  endloop
endfacet
facet normal 0.0 0.9142473793570656 0.4051564257650837
  outer loop
    vertex 18.650041771004506 -19.620526162063094 -2.9313477652865454
    vertex 26.410041771004504 -19.366685239621802 -3.504147265324812
    vertex 18.650041771004506 -19.366685239621802 -3.504147265324812
  endloop
endfacet
facet normal 0.0 0.9142473793570656 0.4051564257650837
  outer loop
    vertex 26.410041771004504 -19.366685239621802 -3.504147265324812
    vertex 18.650041771004506 -19.620526162063094 -2.9313477652865454
    vertex 26.410041771004504 -19.620526162063094 -2.9313477652865454
  endloop
endfacet
facet normal 0.0 0.7782329561044223 0.6279756890461385
  outer loop
    vertex 18.650041771004506 -19.366685239621802 -3.504147265324812
    vertex 26.410041771004504 -18.973242317231616 -3.9917302305430424
    vertex 18.650041771004506 -18.973242317231616 -3.9917302305430424
  endloop
endfacet
facet normal 0.0 0.7782329561044223 0.6279756890461385
  outer loop
    vertex 26.410041771004504 -18.973242317231616 -3.9917302305430424
    vertex 18.650041771004506 -19.366685239621802 -3.504147265324812
    vertex 26.410041771004504 -19.366685239621802 -3.504147265324812
  endloop
endfacet
facet normal 0.0 0.5891832429840276 0.8079994468975981
  outer loop
    vertex 26.410041771004504 -18.973242317231616 -3.9917302305430424
    vertex 18.650041771004506 -18.46700987985825 -4.360868687630562
    vertex 18.650041771004506 -18.973242317231616 -3.9917302305430424
  endloop
endfacet
facet normal 0.0 0.5891832429840276 0.8079994468975981
  outer loop
    vertex 18.650041771004506 -18.46700987985825 -4.360868687630562
    vertex 26.410041771004504 -18.973242317231616 -3.9917302305430424
    vertex 26.410041771004504 -18.46700987985825 -4.360868687630562
  endloop
endfacet
facet normal 0.0 0.35998166552561744 0.9329593777252055
  outer loop
    vertex 26.410041771004504 -18.46700987985825 -4.360868687630562
    vertex 18.650041771004506 -17.88248683152004 -4.586406460766999
    vertex 18.650041771004506 -18.46700987985825 -4.360868687630562
  endloop
endfacet
facet normal 0.0 0.35998166552561744 0.9329593777252055
  outer loop
    vertex 18.650041771004506 -17.88248683152004 -4.586406460766999
    vertex 26.410041771004504 -18.46700987985825 -4.360868687630562
    vertex 26.410041771004504 -17.88248683152004 -4.586406460766999
  endloop
endfacet
facet normal 0.0 0.10624793245946869 0.9943396687491092
  outer loop
    vertex 26.410041771004504 -17.88248683152004 -4.586406460766999
    vertex 18.650041771004506 -17.259507451991233 -4.6529735234319
    vertex 18.650041771004506 -17.88248683152004 -4.586406460766999
  endloop
endfacet
facet normal 0.0 0.10624793245946869 0.9943396687491092
  outer loop
    vertex 18.650041771004506 -17.259507451991233 -4.6529735234319
    vertex 26.410041771004504 -17.88248683152004 -4.586406460766999
    vertex 26.410041771004504 -17.259507451991233 -4.6529735234319
  endloop
endfacet
facet normal -0.0 -0.15472642162078312 0.9879573545717588
  outer loop
    vertex 26.410041771004504 -17.259507451991233 -4.6529735234319
    vertex 18.650041771004506 -16.640526756464606 -4.556033440311924
    vertex 18.650041771004506 -17.259507451991233 -4.6529735234319
  endloop
endfacet
facet normal -0.0 -0.15472642162078312 0.9879573545717588
  outer loop
    vertex 18.650041771004506 -16.640526756464606 -4.556033440311924
    vertex 26.410041771004504 -17.259507451991233 -4.6529735234319
    vertex 26.410041771004504 -16.640526756464606 -4.556033440311924
  endloop
endfacet
facet normal -0.0 -0.40515642576508193 0.9142473793570665
  outer loop
    vertex 26.410041771004504 -16.640526756464606 -4.556033440311924
    vertex 18.650041771004506 -16.06772725642634 -4.302192517870633
    vertex 18.650041771004506 -16.640526756464606 -4.556033440311924
  endloop
endfacet
facet normal -0.0 -0.40515642576508193 0.9142473793570665
  outer loop
    vertex 18.650041771004506 -16.06772725642634 -4.302192517870633
    vertex 26.410041771004504 -16.640526756464606 -4.556033440311924
    vertex 26.410041771004504 -16.06772725642634 -4.302192517870633
  endloop
endfacet
facet normal -0.0 -0.6279756890461405 0.7782329561044206
  outer loop
    vertex 26.410041771004504 -16.06772725642634 -4.302192517870633
    vertex 18.650041771004506 -15.580144291208109 -3.9087495954804448
    vertex 18.650041771004506 -16.06772725642634 -4.302192517870633
  endloop
endfacet
facet normal -0.0 -0.6279756890461405 0.7782329561044206
  outer loop
    vertex 18.650041771004506 -15.580144291208109 -3.9087495954804448
    vertex 26.410041771004504 -16.06772725642634 -4.302192517870633
    vertex 26.410041771004504 -15.580144291208109 -3.9087495954804448
  endloop
endfacet
facet normal -0.0 -0.8079994468975977 0.589183242984028
  outer loop
    vertex 26.410041771004504 -15.21100583412059 -3.402517158107079
    vertex 18.650041771004506 -15.580144291208109 -3.9087495954804448
    vertex 26.410041771004504 -15.580144291208109 -3.9087495954804448
  endloop
endfacet
facet normal -0.0 -0.8079994468975977 0.589183242984028
  outer loop
    vertex 18.650041771004506 -15.580144291208109 -3.9087495954804448
    vertex 26.410041771004504 -15.21100583412059 -3.402517158107079
    vertex 18.650041771004506 -15.21100583412059 -3.402517158107079
  endloop
endfacet
facet normal -0.0 -0.9329593777252051 0.35998166552561817
  outer loop
    vertex 26.410041771004504 -14.985468060984152 -2.8179941097688714
    vertex 18.650041771004506 -15.21100583412059 -3.402517158107079
    vertex 26.410041771004504 -15.21100583412059 -3.402517158107079
  endloop
endfacet
facet normal -0.0 -0.9329593777252051 0.35998166552561817
  outer loop
    vertex 18.650041771004506 -15.21100583412059 -3.402517158107079
    vertex 26.410041771004504 -14.985468060984152 -2.8179941097688714
    vertex 18.650041771004506 -14.985468060984152 -2.8179941097688714
  endloop
endfacet
facet normal -0.0 -0.9943396687491094 0.10624793245946772
  outer loop
    vertex 26.410041771004504 -14.918900998319252 -2.1950147302400618
    vertex 18.650041771004506 -14.985468060984152 -2.8179941097688714
    vertex 26.410041771004504 -14.985468060984152 -2.8179941097688714
  endloop
endfacet
facet normal -0.0 -0.9943396687491094 0.10624793245946772
  outer loop
    vertex 18.650041771004506 -14.985468060984152 -2.8179941097688714
    vertex 26.410041771004504 -14.918900998319252 -2.1950147302400618
    vertex 18.650041771004506 -14.918900998319252 -2.1950147302400618
  endloop
endfacet
facet normal -0.0 -0.9879573545717586 -0.15472642162078412
  outer loop
    vertex 26.410041771004504 -15.015841081439229 -1.576034034713436
    vertex 18.650041771004506 -14.918900998319252 -2.1950147302400618
    vertex 26.410041771004504 -14.918900998319252 -2.1950147302400618
  endloop
endfacet
facet normal -0.0 -0.9879573545717586 -0.15472642162078412
  outer loop
    vertex 18.650041771004506 -14.918900998319252 -2.1950147302400618
    vertex 26.410041771004504 -15.015841081439229 -1.576034034713436
    vertex 18.650041771004506 -15.015841081439229 -1.576034034713436
  endloop
endfacet
facet normal -0.0 -0.914247379357067 -0.40515642576508054
  outer loop
    vertex 26.410041771004504 -15.269682003880519 -1.0032345346751694
    vertex 18.650041771004506 -15.015841081439229 -1.576034034713436
    vertex 26.410041771004504 -15.015841081439229 -1.576034034713436
  endloop
endfacet
facet normal -0.0 -0.914247379357067 -0.40515642576508054
  outer loop
    vertex 18.650041771004506 -15.015841081439229 -1.576034034713436
    vertex 26.410041771004504 -15.269682003880519 -1.0032345346751694
    vertex 18.650041771004506 -15.269682003880519 -1.0032345346751694
  endloop
endfacet
facet normal -0.0 -0.7782329561044196 -0.627975689046142
  outer loop
    vertex 26.410041771004504 -15.66312492627071 -0.5156515694569377
    vertex 18.650041771004506 -15.269682003880519 -1.0032345346751694
    vertex 26.410041771004504 -15.269682003880519 -1.0032345346751694
  endloop
endfacet
facet normal -0.0 -0.7782329561044196 -0.627975689046142
  outer loop
    vertex 18.650041771004506 -15.269682003880519 -1.0032345346751694
    vertex 26.410041771004504 -15.66312492627071 -0.5156515694569377
    vertex 18.650041771004506 -15.66312492627071 -0.5156515694569377
  endloop
endfacet
facet normal -0.0 -0.5891832429840285 -0.8079994468975975
  outer loop
    vertex 26.410041771004504 -15.66312492627071 -0.5156515694569377
    vertex 18.650041771004506 -16.169357363644075 -0.1465131123694187
    vertex 18.650041771004506 -15.66312492627071 -0.5156515694569377
  endloop
endfacet
facet normal -0.0 -0.5891832429840285 -0.8079994468975975
  outer loop
    vertex 18.650041771004506 -16.169357363644075 -0.1465131123694187
    vertex 26.410041771004504 -15.66312492627071 -0.5156515694569377
    vertex 26.410041771004504 -16.169357363644075 -0.1465131123694187
  endloop
endfacet
facet normal -0.0 -0.35998166552561817 -0.9329593777252051
  outer loop
    vertex 26.410041771004504 -16.169357363644075 -0.1465131123694187
    vertex 18.650041771004506 -16.75388041198228 0.07902466076701883
    vertex 18.650041771004506 -16.169357363644075 -0.1465131123694187
  endloop
endfacet
facet normal -0.0 -0.35998166552561817 -0.9329593777252051
  outer loop
    vertex 18.650041771004506 -16.75388041198228 0.07902466076701883
    vertex 26.410041771004504 -16.169357363644075 -0.1465131123694187
    vertex 26.410041771004504 -16.75388041198228 0.07902466076701883
  endloop
endfacet
facet normal -0.0 -0.10624793245946743 -0.9943396687491093
  outer loop
    vertex 26.410041771004504 -16.75388041198228 0.07902466076701883
    vertex 18.650041771004506 -17.37685979151109 0.14559172343191903
    vertex 18.650041771004506 -16.75388041198228 0.07902466076701883
  endloop
endfacet
facet normal -0.0 -0.10624793245946743 -0.9943396687491093
  outer loop
    vertex 18.650041771004506 -17.37685979151109 0.14559172343191903
    vertex 26.410041771004504 -16.75388041198228 0.07902466076701883
    vertex 26.410041771004504 -17.37685979151109 0.14559172343191903
  endloop
endfacet
facet normal -0.0 0.15472642162078454 -0.9879573545717585
  outer loop
    vertex 26.410041771004504 -17.37685979151109 0.14559172343191903
    vertex 18.650041771004506 -17.995840487037718 0.04865164031194198
    vertex 18.650041771004506 -17.37685979151109 0.14559172343191903
  endloop
endfacet
facet normal -0.0 0.15472642162078454 -0.9879573545717585
  outer loop
    vertex 18.650041771004506 -17.995840487037718 0.04865164031194198
    vertex 26.410041771004504 -17.37685979151109 0.14559172343191903
    vertex 26.410041771004504 -17.995840487037718 0.04865164031194198
  endloop
endfacet
facet normal -0.0 0.40515642576508154 -0.9142473793570667
  outer loop
    vertex 26.410041771004504 -17.995840487037718 0.04865164031194198
    vertex 18.650041771004506 -18.568639987075983 -0.20518928212934812
    vertex 18.650041771004506 -17.995840487037718 0.04865164031194198
  endloop
endfacet
facet normal -0.0 0.40515642576508154 -0.9142473793570667
  outer loop
    vertex 18.650041771004506 -18.568639987075983 -0.20518928212934812
    vertex 26.410041771004504 -17.995840487037718 0.04865164031194198
    vertex 26.410041771004504 -18.568639987075983 -0.20518928212934812
  endloop
endfacet
facet normal -0.0 0.6279756890461412 -0.7782329561044202
  outer loop
    vertex 26.410041771004504 -18.568639987075983 -0.20518928212934812
    vertex 18.650041771004506 -19.056222952294213 -0.598632204519537
    vertex 18.650041771004506 -18.568639987075983 -0.20518928212934812
  endloop
endfacet
facet normal -0.0 0.6279756890461412 -0.7782329561044202
  outer loop
    vertex 18.650041771004506 -19.056222952294213 -0.598632204519537
    vertex 26.410041771004504 -18.568639987075983 -0.20518928212934812
    vertex 26.410041771004504 -19.056222952294213 -0.598632204519537
  endloop
endfacet
facet normal -0.0 0.8079994468975977 -0.589183242984028
  outer loop
    vertex 18.650041771004506 -19.056222952294213 -0.598632204519537
    vertex 26.410041771004504 -19.425361409381733 -1.1048646418929031
    vertex 18.650041771004506 -19.425361409381733 -1.1048646418929031
  endloop
endfacet
facet normal -0.0 0.8079994468975977 -0.589183242984028
  outer loop
    vertex 26.410041771004504 -19.425361409381733 -1.1048646418929031
    vertex 18.650041771004506 -19.056222952294213 -0.598632204519537
    vertex 26.410041771004504 -19.056222952294213 -0.598632204519537
  endloop
endfacet
facet normal -0.0 0.9329593777252053 -0.3599816655256181
  outer loop
    vertex 18.650041771004506 -19.425361409381733 -1.1048646418929031
    vertex 26.410041771004504 -19.65089918251817 -1.6893876902311105
    vertex 18.650041771004506 -19.65089918251817 -1.6893876902311105
  endloop
endfacet
facet normal -0.0 0.9329593777252053 -0.3599816655256181
  outer loop
    vertex 26.410041771004504 -19.65089918251817 -1.6893876902311105
    vertex 18.650041771004506 -19.425361409381733 -1.1048646418929031
    vertex 26.410041771004504 -19.425361409381733 -1.1048646418929031
  endloop
endfacet
facet normal 1.0 0.0 0.0
  outer loop
    vertex 18.650041771004506 -83.68986085322108 -2.9330886247671795
    vertex 18.650041771004506 -83.7211730469664 -1.6911518731867607
    vertex 18.650041771004506 -83.7872689876893 -2.3141814132327254
  endloop
endfacet
facet normal 1.0 0.0 0.0
  outer loop
    vertex 18.650041771004506 -83.7211730469664 -1.6911518731867607
    vertex 18.650041771004506 -83.68986085322108 -2.9330886247671795
    vertex 18.650041771004506 -83.49607736018392 -1.1064584381784202
  endloop
endfacet
facet normal 1.0 0.0 0.0
  outer loop
    vertex 18.650041771004506 -83.49607736018392 -1.1064584381784202
    vertex 18.650041771004506 -83.68986085322108 -2.9330886247671795
    vertex 18.650041771004506 -83.43558684695117 -3.505696004116575
  endloop
endfacet
facet normal 1.0 0.0 0.0
  outer loop
    vertex 18.650041771004506 -83.49607736018392 -1.1064584381784202
    vertex 18.650041771004506 -83.43558684695117 -3.505696004116575
    vertex 18.650041771004506 -83.12732182640785 -0.5999469995519363
  endloop
endfacet
facet normal 1.0 0.0 0.0
  outer loop
    vertex 18.650041771004506 -83.12732182640785 -0.5999469995519363
    vertex 18.650041771004506 -83.43558684695117 -3.505696004116575
    vertex 18.650041771004506 -83.04177532219921 -3.992981304656688
  endloop
endfacet
facet normal 1.0 0.0 0.0
  outer loop
    vertex 18.650041771004506 -83.12732182640785 -0.5999469995519363
    vertex 18.650041771004506 -83.04177532219921 -3.992981304656688
    vertex 18.650041771004506 -82.64003652586774 -0.20613547479997268
  endloop
endfacet
facet normal 1.0 0.0 0.0
  outer loop
    vertex 18.650041771004506 -82.64003652586774 -0.20613547479997268
    vertex 18.650041771004506 -83.04177532219921 -3.992981304656688
    vertex 18.650041771004506 -82.53526388357272 -4.361736838432743
  endloop
endfacet
facet normal 1.0 0.0 0.0
  outer loop
    vertex 18.650041771004506 -82.64003652586774 -0.20613547479997268
    vertex 18.650041771004506 -82.53526388357272 -4.361736838432743
    vertex 18.650041771004506 -82.06742914651835 0.04813853146993748
  endloop
endfacet
facet normal 1.0 0.0 0.0
  outer loop
    vertex 18.650041771004506 -82.06742914651835 0.04813853146993748
    vertex 18.650041771004506 -82.53526388357272 -4.361736838432743
    vertex 18.650041771004506 -81.95057044856438 -4.586832525215234
  endloop
endfacet
facet normal 1.0 0.0 0.0
  outer loop
    vertex 18.650041771004506 -82.06742914651835 0.04813853146993748
    vertex 18.650041771004506 -81.95057044856438 -4.586832525215234
    vertex 18.650041771004506 -81.4485219349839 0.145546665938165
  endloop
endfacet
facet normal 1.0 0.0 0.0
  outer loop
    vertex 18.650041771004506 -81.4485219349839 0.145546665938165
    vertex 18.650041771004506 -81.95057044856438 -4.586832525215234
    vertex 18.650041771004506 -81.32754090851842 -4.652928465938146
  endloop
endfacet
facet normal 1.0 0.0 0.0
  outer loop
    vertex 18.650041771004506 -81.4485219349839 0.145546665938165
    vertex 18.650041771004506 -81.32754090851842 -4.652928465938146
    vertex 18.650041771004506 -80.82549239493792 0.07945072521525347
  endloop
endfacet
facet normal 1.0 0.0 0.0
  outer loop
    vertex 18.650041771004506 -80.82549239493792 0.07945072521525347
    vertex 18.650041771004506 -81.32754090851842 -4.652928465938146
    vertex 18.650041771004506 -80.70863369698397 -4.555520331469919
  endloop
endfacet
facet normal 1.0 0.0 0.0
  outer loop
    vertex 18.650041771004506 -80.82549239493792 0.07945072521525347
    vertex 18.650041771004506 -80.70863369698397 -4.555520331469919
    vertex 18.650041771004506 -80.24079895992959 -0.14564496156723802
  endloop
endfacet
facet normal 1.0 0.0 0.0
  outer loop
    vertex 18.650041771004506 -80.24079895992959 -0.14564496156723802
    vertex 18.650041771004506 -80.70863369698397 -4.555520331469919
    vertex 18.650041771004506 -80.13602631763457 -4.301246325200009
  endloop
endfacet
facet normal 1.0 0.0 0.0
  outer loop
    vertex 18.650041771004506 -80.24079895992959 -0.14564496156723802
    vertex 18.650041771004506 -80.13602631763457 -4.301246325200009
    vertex 18.650041771004506 -79.7342875213031 -0.514400495343292
  endloop
endfacet
facet normal 1.0 0.0 0.0
  outer loop
    vertex 18.650041771004506 -79.7342875213031 -0.514400495343292
    vertex 18.650041771004506 -80.13602631763457 -4.301246325200009
    vertex 18.650041771004506 -79.64874101709445 -3.9074348004480455
  endloop
endfacet
facet normal 1.0 0.0 0.0
  outer loop
    vertex 18.650041771004506 -79.7342875213031 -0.514400495343292
    vertex 18.650041771004506 -79.64874101709445 -3.9074348004480455
    vertex 18.650041771004506 -79.34047599655113 -1.0016857958834062
  endloop
endfacet
facet normal 1.0 0.0 0.0
  outer loop
    vertex 18.650041771004506 -79.34047599655113 -1.0016857958834062
    vertex 18.650041771004506 -79.64874101709445 -3.9074348004480455
    vertex 18.650041771004506 -79.2799854833184 -3.4009233618215617
  endloop
endfacet
facet normal 1.0 0.0 0.0
  outer loop
    vertex 18.650041771004506 -79.34047599655113 -1.0016857958834062
    vertex 18.650041771004506 -79.2799854833184 -3.4009233618215617
    vertex 18.650041771004506 -79.08620199028122 -1.5742931752328024
  endloop
endfacet
facet normal 1.0 0.0 0.0
  outer loop
    vertex 18.650041771004506 -79.08620199028122 -1.5742931752328024
    vertex 18.650041771004506 -79.2799854833184 -3.4009233618215617
    vertex 18.650041771004506 -79.05488979653592 -2.8162299268132216
  endloop
endfacet
facet normal 1.0 0.0 0.0
  outer loop
    vertex 18.650041771004506 -79.08620199028122 -1.5742931752328024
    vertex 18.650041771004506 -79.05488979653592 -2.8162299268132216
    vertex 18.650041771004506 -78.988793855813 -2.193200386767256
  endloop
endfacet
facet normal -0.0 -0.8084447618192854 0.5885720576844939
  outer loop
    vertex 26.410041771004504 -79.2799854833184 -3.4009233618215617
    vertex 18.650041771004506 -79.64874101709445 -3.9074348004480455
    vertex 26.410041771004504 -79.64874101709445 -3.9074348004480455
  endloop
endfacet
facet normal -0.0 -0.8084447618192854 0.5885720576844939
  outer loop
    vertex 18.650041771004506 -79.64874101709445 -3.9074348004480455
    vertex 26.410041771004504 -79.2799854833184 -3.4009233618215617
    vertex 18.650041771004506 -79.2799854833184 -3.4009233618215617
  endloop
endfacet
facet normal -0.0 -0.9332313325132856 0.35927604987735784
  outer loop
    vertex 26.410041771004504 -79.05488979653592 -2.8162299268132216
    vertex 18.650041771004506 -79.2799854833184 -3.4009233618215617
    vertex 26.410041771004504 -79.2799854833184 -3.4009233618215617
  endloop
endfacet
facet normal -0.0 -0.9332313325132856 0.35927604987735784
  outer loop
    vertex 18.650041771004506 -79.2799854833184 -3.4009233618215617
    vertex 26.410041771004504 -79.05488979653592 -2.8162299268132216
    vertex 18.650041771004506 -79.05488979653592 -2.8162299268132216
  endloop
endfacet
facet normal -0.0 -0.9944197301342069 0.10549597300281713
  outer loop
    vertex 26.410041771004504 -78.988793855813 -2.193200386767256
    vertex 18.650041771004506 -79.05488979653592 -2.8162299268132216
    vertex 26.410041771004504 -79.05488979653592 -2.8162299268132216
  endloop
endfacet
facet normal -0.0 -0.9944197301342069 0.10549597300281713
  outer loop
    vertex 18.650041771004506 -79.05488979653592 -2.8162299268132216
    vertex 26.410041771004504 -78.988793855813 -2.193200386767256
    vertex 18.650041771004506 -78.988793855813 -2.193200386767256
  endloop
endfacet
facet normal -0.0 -0.987840066502785 -0.155473480091537
  outer loop
    vertex 26.410041771004504 -79.08620199028122 -1.5742931752328024
    vertex 18.650041771004506 -78.988793855813 -2.193200386767256
    vertex 26.410041771004504 -78.988793855813 -2.193200386767256
  endloop
endfacet
facet normal -0.0 -0.987840066502785 -0.155473480091537
  outer loop
    vertex 18.650041771004506 -78.988793855813 -2.193200386767256
    vertex 26.410041771004504 -79.08620199028122 -1.5742931752328024
    vertex 18.650041771004506 -79.08620199028122 -1.5742931752328024
  endloop
endfacet
facet normal -0.0 -0.913940734822097 -0.40584767244970793
  outer loop
    vertex 26.410041771004504 -79.34047599655113 -1.0016857958834062
    vertex 18.650041771004506 -79.08620199028122 -1.5742931752328024
    vertex 26.410041771004504 -79.08620199028122 -1.5742931752328024
  endloop
endfacet
facet normal -0.0 -0.913940734822097 -0.40584767244970793
  outer loop
    vertex 18.650041771004506 -79.08620199028122 -1.5742931752328024
    vertex 26.410041771004504 -79.34047599655113 -1.0016857958834062
    vertex 18.650041771004506 -79.34047599655113 -1.0016857958834062
  endloop
endfacet
facet normal -0.0 -0.7777578524217581 -0.6285640166254307
  outer loop
    vertex 26.410041771004504 -79.7342875213031 -0.514400495343292
    vertex 18.650041771004506 -79.34047599655113 -1.0016857958834062
    vertex 26.410041771004504 -79.34047599655113 -1.0016857958834062
  endloop
endfacet
facet normal -0.0 -0.7777578524217581 -0.6285640166254307
  outer loop
    vertex 18.650041771004506 -79.34047599655113 -1.0016857958834062
    vertex 26.410041771004504 -79.7342875213031 -0.514400495343292
    vertex 18.650041771004506 -79.7342875213031 -0.514400495343292
  endloop
endfacet
facet normal -0.0 -0.5885720576844939 -0.8084447618192852
  outer loop
    vertex 26.410041771004504 -79.7342875213031 -0.514400495343292
    vertex 18.650041771004506 -80.24079895992959 -0.14564496156723802
    vertex 18.650041771004506 -79.7342875213031 -0.514400495343292
  endloop
endfacet
facet normal -0.0 -0.5885720576844939 -0.8084447618192852
  outer loop
    vertex 18.650041771004506 -80.24079895992959 -0.14564496156723802
    vertex 26.410041771004504 -79.7342875213031 -0.514400495343292
    vertex 26.410041771004504 -80.24079895992959 -0.14564496156723802
  endloop
endfacet
facet normal -0.0 -0.35927604987735395 -0.9332313325132869
  outer loop
    vertex 26.410041771004504 -80.24079895992959 -0.14564496156723802
    vertex 18.650041771004506 -80.82549239493792 0.07945072521525347
    vertex 18.650041771004506 -80.24079895992959 -0.14564496156723802
  endloop
endfacet
facet normal -0.0 -0.35927604987735395 -0.9332313325132869
  outer loop
    vertex 18.650041771004506 -80.82549239493792 0.07945072521525347
    vertex 26.410041771004504 -80.24079895992959 -0.14564496156723802
    vertex 26.410041771004504 -80.82549239493792 0.07945072521525347
  endloop
endfacet
facet normal -0.0 -0.10549597300281256 -0.9944197301342075
  outer loop
    vertex 26.410041771004504 -80.82549239493792 0.07945072521525347
    vertex 18.650041771004506 -81.4485219349839 0.145546665938165
    vertex 18.650041771004506 -80.82549239493792 0.07945072521525347
  endloop
endfacet
facet normal -0.0 -0.10549597300281256 -0.9944197301342075
  outer loop
    vertex 18.650041771004506 -81.4485219349839 0.145546665938165
    vertex 26.410041771004504 -80.82549239493792 0.07945072521525347
    vertex 26.410041771004504 -81.4485219349839 0.145546665938165
  endloop
endfacet
facet normal -0.0 0.15547348009153147 -0.9878400665027859
  outer loop
    vertex 26.410041771004504 -81.4485219349839 0.145546665938165
    vertex 18.650041771004506 -82.06742914651835 0.04813853146993748
    vertex 18.650041771004506 -81.4485219349839 0.145546665938165
  endloop
endfacet
facet normal -0.0 0.15547348009153147 -0.9878400665027859
  outer loop
    vertex 18.650041771004506 -82.06742914651835 0.04813853146993748
    vertex 26.410041771004504 -81.4485219349839 0.145546665938165
    vertex 26.410041771004504 -82.06742914651835 0.04813853146993748
  endloop
endfacet
facet normal -0.0 0.4058476724497109 -0.9139407348220957
  outer loop
    vertex 26.410041771004504 -82.06742914651835 0.04813853146993748
    vertex 18.650041771004506 -82.64003652586774 -0.20613547479997268
    vertex 18.650041771004506 -82.06742914651835 0.04813853146993748
  endloop
endfacet
facet normal -0.0 0.4058476724497109 -0.9139407348220957
  outer loop
    vertex 18.650041771004506 -82.64003652586774 -0.20613547479997268
    vertex 26.410041771004504 -82.06742914651835 0.04813853146993748
    vertex 26.410041771004504 -82.64003652586774 -0.20613547479997268
  endloop
endfacet
facet normal -0.0 0.6285640166254293 -0.7777578524217594
  outer loop
    vertex 26.410041771004504 -82.64003652586774 -0.20613547479997268
    vertex 18.650041771004506 -83.12732182640785 -0.5999469995519363
    vertex 18.650041771004506 -82.64003652586774 -0.20613547479997268
  endloop
endfacet
facet normal -0.0 0.6285640166254293 -0.7777578524217594
  outer loop
    vertex 18.650041771004506 -83.12732182640785 -0.5999469995519363
    vertex 26.410041771004504 -82.64003652586774 -0.20613547479997268
    vertex 26.410041771004504 -83.12732182640785 -0.5999469995519363
  endloop
endfacet
facet normal -0.0 0.8084447618192786 -0.5885720576845029
  outer loop
    vertex 18.650041771004506 -83.12732182640785 -0.5999469995519363
    vertex 26.410041771004504 -83.49607736018392 -1.1064584381784202
    vertex 18.650041771004506 -83.49607736018392 -1.1064584381784202
  endloop
endfacet
facet normal -0.0 0.8084447618192786 -0.5885720576845029
  outer loop
    vertex 26.410041771004504 -83.49607736018392 -1.1064584381784202
    vertex 18.650041771004506 -83.12732182640785 -0.5999469995519363
    vertex 26.410041771004504 -83.12732182640785 -0.5999469995519363
  endloop
endfacet
facet normal -0.0 0.9332313325132904 -0.359276049877345
  outer loop
    vertex 18.650041771004506 -83.49607736018392 -1.1064584381784202
    vertex 26.410041771004504 -83.7211730469664 -1.6911518731867607
    vertex 18.650041771004506 -83.7211730469664 -1.6911518731867607
  endloop
endfacet
facet normal -0.0 0.9332313325132904 -0.359276049877345
  outer loop
    vertex 26.410041771004504 -83.7211730469664 -1.6911518731867607
    vertex 18.650041771004506 -83.49607736018392 -1.1064584381784202
    vertex 26.410041771004504 -83.49607736018392 -1.1064584381784202
  endloop
endfacet
facet normal -0.0 0.9944197301342086 -0.10549597300280304
  outer loop
    vertex 18.650041771004506 -83.7211730469664 -1.6911518731867607
    vertex 26.410041771004504 -83.7872689876893 -2.3141814132327254
    vertex 18.650041771004506 -83.7872689876893 -2.3141814132327254
  endloop
endfacet
facet normal -0.0 0.9944197301342086 -0.10549597300280304
  outer loop
    vertex 26.410041771004504 -83.7872689876893 -2.3141814132327254
    vertex 18.650041771004506 -83.7211730469664 -1.6911518731867607
    vertex 26.410041771004504 -83.7211730469664 -1.6911518731867607
  endloop
endfacet
facet normal 0.0 0.9878400665027871 0.1554734800915228
  outer loop
    vertex 18.650041771004506 -83.7872689876893 -2.3141814132327254
    vertex 26.410041771004504 -83.68986085322108 -2.9330886247671795
    vertex 18.650041771004506 -83.68986085322108 -2.9330886247671795
  endloop
endfacet
facet normal 0.0 0.9878400665027871 0.1554734800915228
  outer loop
    vertex 26.410041771004504 -83.68986085322108 -2.9330886247671795
    vertex 18.650041771004506 -83.7872689876893 -2.3141814132327254
    vertex 26.410041771004504 -83.7872689876893 -2.3141814132327254
  endloop
endfacet
facet normal 0.0 0.9139407348220969 0.4058476724497085
  outer loop
    vertex 18.650041771004506 -83.68986085322108 -2.9330886247671795
    vertex 26.410041771004504 -83.43558684695117 -3.505696004116575
    vertex 18.650041771004506 -83.43558684695117 -3.505696004116575
  endloop
endfacet
facet normal 0.0 0.9139407348220969 0.4058476724497085
  outer loop
    vertex 26.410041771004504 -83.43558684695117 -3.505696004116575
    vertex 18.650041771004506 -83.68986085322108 -2.9330886247671795
    vertex 26.410041771004504 -83.68986085322108 -2.9330886247671795
  endloop
endfacet
facet normal 0.0 0.7777578524217575 0.6285640166254317
  outer loop
    vertex 18.650041771004506 -83.43558684695117 -3.505696004116575
    vertex 26.410041771004504 -83.04177532219921 -3.992981304656688
    vertex 18.650041771004506 -83.04177532219921 -3.992981304656688
  endloop
endfacet
facet normal 0.0 0.7777578524217575 0.6285640166254317
  outer loop
    vertex 26.410041771004504 -83.04177532219921 -3.992981304656688
    vertex 18.650041771004506 -83.43558684695117 -3.505696004116575
    vertex 26.410041771004504 -83.43558684695117 -3.505696004116575
  endloop
endfacet
facet normal 0.0 0.5885720576844952 0.8084447618192845
  outer loop
    vertex 26.410041771004504 -83.04177532219921 -3.992981304656688
    vertex 18.650041771004506 -82.53526388357272 -4.361736838432743
    vertex 18.650041771004506 -83.04177532219921 -3.992981304656688
  endloop
endfacet
facet normal 0.0 0.5885720576844952 0.8084447618192845
  outer loop
    vertex 18.650041771004506 -82.53526388357272 -4.361736838432743
    vertex 26.410041771004504 -83.04177532219921 -3.992981304656688
    vertex 26.410041771004504 -82.53526388357272 -4.361736838432743
  endloop
endfacet
facet normal 0.0 0.3592760498773528 0.9332313325132874
  outer loop
    vertex 26.410041771004504 -82.53526388357272 -4.361736838432743
    vertex 18.650041771004506 -81.95057044856438 -4.586832525215234
    vertex 18.650041771004506 -82.53526388357272 -4.361736838432743
  endloop
endfacet
facet normal 0.0 0.3592760498773528 0.9332313325132874
  outer loop
    vertex 18.650041771004506 -81.95057044856438 -4.586832525215234
    vertex 26.410041771004504 -82.53526388357272 -4.361736838432743
    vertex 26.410041771004504 -81.95057044856438 -4.586832525215234
  endloop
endfacet
facet normal 0.0 0.1054959730028139 0.9944197301342073
  outer loop
    vertex 26.410041771004504 -81.95057044856438 -4.586832525215234
    vertex 18.650041771004506 -81.32754090851842 -4.652928465938146
    vertex 18.650041771004506 -81.95057044856438 -4.586832525215234
  endloop
endfacet
facet normal 0.0 0.1054959730028139 0.9944197301342073
  outer loop
    vertex 18.650041771004506 -81.32754090851842 -4.652928465938146
    vertex 26.410041771004504 -81.95057044856438 -4.586832525215234
    vertex 26.410041771004504 -81.32754090851842 -4.652928465938146
  endloop
endfacet
facet normal -0.0 -0.15547348009153236 0.9878400665027857
  outer loop
    vertex 26.410041771004504 -81.32754090851842 -4.652928465938146
    vertex 18.650041771004506 -80.70863369698397 -4.555520331469919
    vertex 18.650041771004506 -81.32754090851842 -4.652928465938146
  endloop
endfacet
facet normal -0.0 -0.15547348009153236 0.9878400665027857
  outer loop
    vertex 18.650041771004506 -80.70863369698397 -4.555520331469919
    vertex 26.410041771004504 -81.32754090851842 -4.652928465938146
    vertex 26.410041771004504 -80.70863369698397 -4.555520331469919
  endloop
endfacet
facet normal -0.0 -0.4058476724497098 0.9139407348220964
  outer loop
    vertex 26.410041771004504 -80.70863369698397 -4.555520331469919
    vertex 18.650041771004506 -80.13602631763457 -4.301246325200009
    vertex 18.650041771004506 -80.70863369698397 -4.555520331469919
  endloop
endfacet
facet normal -0.0 -0.4058476724497098 0.9139407348220964
  outer loop
    vertex 18.650041771004506 -80.13602631763457 -4.301246325200009
    vertex 26.410041771004504 -80.70863369698397 -4.555520331469919
    vertex 26.410041771004504 -80.13602631763457 -4.301246325200009
  endloop
endfacet
facet normal -0.0 -0.6285640166254293 0.7777578524217594
  outer loop
    vertex 26.410041771004504 -80.13602631763457 -4.301246325200009
    vertex 18.650041771004506 -79.64874101709445 -3.9074348004480455
    vertex 18.650041771004506 -80.13602631763457 -4.301246325200009
  endloop
endfacet
facet normal -0.0 -0.6285640166254293 0.7777578524217594
  outer loop
    vertex 18.650041771004506 -79.64874101709445 -3.9074348004480455
    vertex 26.410041771004504 -80.13602631763457 -4.301246325200009
    vertex 26.410041771004504 -79.64874101709445 -3.9074348004480455
  endloop
endfacet
facet normal 0.0 -1.0 0.0
  outer loop
    vertex 16.641727446359752 -16.643121872346644 -0.24369089999999619
    vertex 12.96208176366128 -16.643121872346644 -0.2436909
    vertex 16.641727446359756 -16.643121872346644 -6.263690899999994
  endloop
endfacet
facet normal 0.0 -1.0 0.0
  outer loop
    vertex 16.641727446359756 -16.643121872346644 -6.263690899999994
    vertex 10.522271663661222 -16.643121872346644 1.7563091000000002
    vertex 10.522271663661222 -16.643121872346644 -6.263690899999997
  endloop
endfacet
facet normal 0.0 -1.0 0.0
  outer loop
    vertex 10.522271663661222 -16.643121872346644 1.7563091000000002
    vertex 16.641727446359756 -16.643121872346644 -6.263690899999994
    vertex 12.96208176366128 -16.643121872346644 -0.2436909
  endloop
endfacet
facet normal 0.0 -1.0 0.0
  outer loop
    vertex 10.522271663661222 -16.643121872346644 1.7563091000000002
    vertex 12.96208176366128 -16.643121872346644 -0.2436909
    vertex 12.96208176366128 -16.643121872346644 1.7563091000000002
  endloop
endfacet
facet normal -5.677895523820333e-16 7.495510251484514e-18 1.0
  outer loop
    vertex 14.992856763661276 -30.72981827234664 1.7563091000000002
    vertex 10.234844063661223 -22.949923772346636 1.7563091000000002
    vertex 10.234844063661223 -30.72981827234664 1.7563091000000002
  endloop
endfacet
facet normal -5.677895523820333e-16 7.495510251484514e-18 1.0
  outer loop
    vertex 10.234844063661223 -22.949923772346636 1.7563091000000002
    vertex 14.992856763661276 -30.72981827234664 1.7563091000000002
    vertex 12.96208176366128 -22.949923772346636 1.7563091000000002
  endloop
endfacet
facet normal -5.677895523820333e-16 7.495510251484514e-18 1.0
  outer loop
    vertex 12.96208176366128 -22.949923772346636 1.7563091000000002
    vertex 14.992856763661276 -30.72981827234664 1.7563091000000002
    vertex 12.96208176366128 -16.643121872346644 1.7563091000000002
  endloop
endfacet
facet normal -5.677895523820333e-16 7.495510251484514e-18 1.0
  outer loop
    vertex 26.410041771004504 -86.64818362175116 1.7563091000000097
    vertex 9.45458726366121 -82.25811962175113 1.7563091000000002
    vertex 9.45458726366121 -86.64818362175116 1.7563091000000002
  endloop
endfacet
facet normal -5.677895523820333e-16 7.495510251484514e-18 1.0
  outer loop
    vertex 9.45458726366121 -82.25811962175113 1.7563091000000002
    vertex 26.410041771004504 -86.64818362175116 1.7563091000000097
    vertex 12.235935463661225 -82.25811962175113 1.7563091000000002
  endloop
endfacet
facet normal -5.677895523820333e-16 7.495510251484514e-18 1.0
  outer loop
    vertex 12.235935463661225 -82.25811962175113 1.7563091000000002
    vertex 26.410041771004504 -86.64818362175116 1.7563091000000097
    vertex 12.235935463661225 -71.43245161851983 1.7563091000000002
  endloop
endfacet
facet normal -5.677895523820333e-16 7.495510251484514e-18 1.0
  outer loop
    vertex 12.235935463661225 -71.43245161851983 1.7563091000000002
    vertex 26.410041771004504 -86.64818362175116 1.7563091000000097
    vertex 14.992856763661276 -59.22648542463507 1.7563091000000002
  endloop
endfacet
facet normal -5.677895523820333e-16 7.495510251484514e-18 1.0
  outer loop
    vertex 14.992856763661276 -59.22648542463507 1.7563091000000002
    vertex 26.410041771004504 -86.64818362175116 1.7563091000000097
    vertex 14.992856763661276 -30.72981827234664 1.7563091000000002
  endloop
endfacet
facet normal -5.677895523820333e-16 7.495510251484514e-18 1.0
  outer loop
    vertex 12.96208176366128 -16.643121872346644 1.7563091000000002
    vertex 10.656210263661237 -12.058031421751163 1.7563091000000002
    vertex 10.522271663661222 -16.643121872346644 1.7563091000000002
  endloop
endfacet
facet normal -5.677895523820333e-16 7.495510251484514e-18 1.0
  outer loop
    vertex 10.656210263661237 -12.058031421751163 1.7563091000000002
    vertex 12.96208176366128 -16.643121872346644 1.7563091000000002
    vertex 26.410041771004504 -12.058031421751163 1.7563091000000097
  endloop
endfacet
facet normal -5.677895523820333e-16 7.495510251484514e-18 1.0
  outer loop
    vertex 26.410041771004504 -12.058031421751163 1.7563091000000097
    vertex 12.96208176366128 -16.643121872346644 1.7563091000000002
    vertex 14.992856763661276 -30.72981827234664 1.7563091000000002
  endloop
endfacet
facet normal -5.677895523820333e-16 7.495510251484514e-18 1.0
  outer loop
    vertex 26.410041771004504 -12.058031421751163 1.7563091000000097
    vertex 14.992856763661276 -30.72981827234664 1.7563091000000002
    vertex 26.410041771004504 -86.64818362175116 1.7563091000000097
  endloop
endfacet
facet normal -5.677895523820333e-16 7.495510251484514e-18 1.0
  outer loop
    vertex 12.235935463661225 -71.43245161851983 1.7563091000000002
    vertex 9.45458726366121 -59.22648542463507 1.7563091000000002
    vertex 9.45458726366121 -71.43245161851983 1.7563091000000002
  endloop
endfacet
facet normal -5.677895523820333e-16 7.495510251484514e-18 1.0
  outer loop
    vertex 9.45458726366121 -59.22648542463507 1.7563091000000002
    vertex 12.235935463661225 -71.43245161851983 1.7563091000000002
    vertex 14.992856763661276 -59.22648542463507 1.7563091000000002
  endloop
endfacet
facet normal -0.9995736091644551 0.029199312696450805 6.419405697775045e-19
  outer loop
    vertex 10.656210263661237 -12.058031421751163 1.7563091000000002
    vertex 10.522271663661222 -16.643121872346644 -6.263690899999997
    vertex 10.522271663661222 -16.643121872346644 1.7563091000000002
  endloop
endfacet
facet normal -0.9995736091644551 0.029199312696450805 6.419405697775045e-19
  outer loop
    vertex 10.522271663661222 -16.643121872346644 -6.263690899999997
    vertex 10.656210263661237 -12.058031421751163 1.7563091000000002
    vertex 10.656210263661237 -12.058031421751163 -6.263690899999997
  endloop
endfacet
facet normal 1.0 -2.243709719798584e-17 3.9495891960155386e-16
  outer loop
    vertex 26.410041771004508 -86.64818362175116 -6.2636908999999905
    vertex 26.410041771004504 -83.43558684695117 -3.505696004116575
    vertex 26.410041771004504 -86.64818362175116 1.7563091000000097
  endloop
endfacet
facet normal 1.0 -2.243709719798584e-17 3.9495891960155386e-16
  outer loop
    vertex 26.410041771004504 -83.43558684695117 -3.505696004116575
    vertex 26.410041771004508 -86.64818362175116 -6.2636908999999905
    vertex 26.410041771004504 -83.04177532219921 -3.992981304656688
  endloop
endfacet
facet normal 1.0 -2.243709719798584e-17 3.9495891960155386e-16
  outer loop
    vertex 26.410041771004504 -83.04177532219921 -3.992981304656688
    vertex 26.410041771004508 -86.64818362175116 -6.2636908999999905
    vertex 26.410041771004504 -82.53526388357272 -4.361736838432743
  endloop
endfacet
facet normal 1.0 -2.243709719798584e-17 3.9495891960155386e-16
  outer loop
    vertex 26.410041771004504 -82.53526388357272 -4.361736838432743
    vertex 26.410041771004508 -86.64818362175116 -6.2636908999999905
    vertex 26.410041771004504 -81.95057044856438 -4.586832525215234
  endloop
endfacet
facet normal 1.0 -2.243709719798584e-17 3.9495891960155386e-16
  outer loop
    vertex 26.410041771004504 -81.95057044856438 -4.586832525215234
    vertex 26.410041771004508 -86.64818362175116 -6.2636908999999905
    vertex 26.410041771004508 -76.128793855813 -6.2636908999999905
  endloop
endfacet
facet normal 1.0 -2.243709719798584e-17 3.9495891960155386e-16
  outer loop
    vertex 26.410041771004504 -86.64818362175116 1.7563091000000097
    vertex 26.410041771004504 -83.43558684695117 -3.505696004116575
    vertex 26.410041771004504 -83.68986085322108 -2.9330886247671795
  endloop
endfacet
facet normal 1.0 -2.243709719798584e-17 3.9495891960155386e-16
  outer loop
    vertex 26.410041771004504 -86.64818362175116 1.7563091000000097
    vertex 26.410041771004504 -83.68986085322108 -2.9330886247671795
    vertex 26.410041771004504 -83.7872689876893 -2.3141814132327254
  endloop
endfacet
facet normal 1.0 -2.243709719798584e-17 3.9495891960155386e-16
  outer loop
    vertex 26.410041771004504 -81.95057044856438 -4.586832525215234
    vertex 26.410041771004508 -76.128793855813 -6.2636908999999905
    vertex 26.410041771004504 -81.32754090851842 -4.652928465938146
  endloop
endfacet
facet normal 1.0 -2.243709719798584e-17 3.9495891960155386e-16
  outer loop
    vertex 26.410041771004504 -81.32754090851842 -4.652928465938146
    vertex 26.410041771004508 -76.128793855813 -6.2636908999999905
    vertex 26.410041771004504 -80.70863369698397 -4.555520331469919
  endloop
endfacet
facet normal 1.0 -2.243709719798584e-17 3.9495891960155386e-16
  outer loop
    vertex 26.410041771004504 -80.70863369698397 -4.555520331469919
    vertex 26.410041771004508 -76.128793855813 -6.2636908999999905
    vertex 26.410041771004504 -80.13602631763457 -4.301246325200009
  endloop
endfacet
facet normal 1.0 -2.243709719798584e-17 3.9495891960155386e-16
  outer loop
    vertex 26.410041771004504 -80.13602631763457 -4.301246325200009
    vertex 26.410041771004508 -76.128793855813 -6.2636908999999905
    vertex 26.410041771004504 -79.64874101709445 -3.9074348004480455
  endloop
endfacet
facet normal 1.0 -2.243709719798584e-17 3.9495891960155386e-16
  outer loop
    vertex 26.410041771004504 -79.64874101709445 -3.9074348004480455
    vertex 26.410041771004508 -76.128793855813 -6.2636908999999905
    vertex 26.410041771004504 -79.2799854833184 -3.4009233618215617
  endloop
endfacet
facet normal 1.0 -2.243709719798584e-17 3.9495891960155386e-16
  outer loop
    vertex 26.410041771004504 -79.2799854833184 -3.4009233618215617
    vertex 26.410041771004508 -76.128793855813 -6.2636908999999905
    vertex 26.410041771004504 -79.05488979653592 -2.8162299268132216
  endloop
endfacet
facet normal 1.0 -2.243709719798584e-17 3.9495891960155386e-16
  outer loop
    vertex 26.410041771004504 -79.05488979653592 -2.8162299268132216
    vertex 26.410041771004508 -76.128793855813 -6.2636908999999905
    vertex 26.410041771004504 -78.988793855813 -2.193200386767256
  endloop
endfacet
facet normal 1.0 -2.243709719798584e-17 3.9495891960155386e-16
  outer loop
    vertex 26.410041771004508 -22.57746624518307 -6.2636908999999905
    vertex 26.410041771004504 -18.973242317231616 -3.9917302305430424
    vertex 26.410041771004508 -22.57746624518307 -0.2436908999999959
  endloop
endfacet
facet normal 1.0 -2.243709719798584e-17 3.9495891960155386e-16
  outer loop
    vertex 26.410041771004504 -18.973242317231616 -3.9917302305430424
    vertex 26.410041771004508 -22.57746624518307 -6.2636908999999905
    vertex 26.410041771004504 -18.46700987985825 -4.360868687630562
  endloop
endfacet
facet normal 1.0 -2.243709719798584e-17 3.9495891960155386e-16
  outer loop
    vertex 26.410041771004504 -18.46700987985825 -4.360868687630562
    vertex 26.410041771004508 -22.57746624518307 -6.2636908999999905
    vertex 26.410041771004504 -17.88248683152004 -4.586406460766999
  endloop
endfacet
facet normal 1.0 -2.243709719798584e-17 3.9495891960155386e-16
  outer loop
    vertex 26.410041771004504 -17.88248683152004 -4.586406460766999
    vertex 26.410041771004508 -22.57746624518307 -6.2636908999999905
    vertex 26.410041771004508 -12.058031421751163 -6.2636908999999905
  endloop
endfacet
facet normal 1.0 -2.243709719798584e-17 3.9495891960155386e-16
  outer loop
    vertex 26.410041771004508 -22.57746624518307 -0.2436908999999959
    vertex 26.410041771004504 -18.973242317231616 -3.9917302305430424
    vertex 26.410041771004504 -19.366685239621802 -3.504147265324812
  endloop
endfacet
facet normal 1.0 -2.243709719798584e-17 3.9495891960155386e-16
  outer loop
    vertex 26.410041771004508 -22.57746624518307 -0.2436908999999959
    vertex 26.410041771004504 -19.366685239621802 -3.504147265324812
    vertex 26.410041771004504 -19.620526162063094 -2.9313477652865454
  endloop
endfacet
facet normal 1.0 -2.243709719798584e-17 3.9495891960155386e-16
  outer loop
    vertex 26.410041771004508 -22.57746624518307 -0.2436908999999959
    vertex 26.410041771004504 -19.620526162063094 -2.9313477652865454
    vertex 26.410041771004504 -19.717466245183072 -2.3123670697599197
  endloop
endfacet
facet normal 1.0 -2.243709719798584e-17 3.9495891960155386e-16
  outer loop
    vertex 26.410041771004504 -17.88248683152004 -4.586406460766999
    vertex 26.410041771004508 -12.058031421751163 -6.2636908999999905
    vertex 26.410041771004504 -17.259507451991233 -4.6529735234319
  endloop
endfacet
facet normal 1.0 -2.243709719798584e-17 3.9495891960155386e-16
  outer loop
    vertex 26.410041771004504 -17.259507451991233 -4.6529735234319
    vertex 26.410041771004508 -12.058031421751163 -6.2636908999999905
    vertex 26.410041771004504 -16.640526756464606 -4.556033440311924
  endloop
endfacet
facet normal 1.0 -2.243709719798584e-17 3.9495891960155386e-16
  outer loop
    vertex 26.410041771004504 -16.640526756464606 -4.556033440311924
    vertex 26.410041771004508 -12.058031421751163 -6.2636908999999905
    vertex 26.410041771004504 -16.06772725642634 -4.302192517870633
  endloop
endfacet
facet normal 1.0 -2.243709719798584e-17 3.9495891960155386e-16
  outer loop
    vertex 26.410041771004504 -16.06772725642634 -4.302192517870633
    vertex 26.410041771004508 -12.058031421751163 -6.2636908999999905
    vertex 26.410041771004504 -15.580144291208109 -3.9087495954804448
  endloop
endfacet
facet normal 1.0 -2.243709719798584e-17 3.9495891960155386e-16
  outer loop
    vertex 26.410041771004504 -15.580144291208109 -3.9087495954804448
    vertex 26.410041771004508 -12.058031421751163 -6.2636908999999905
    vertex 26.410041771004504 -15.21100583412059 -3.402517158107079
  endloop
endfacet
facet normal 1.0 -2.243709719798584e-17 3.9495891960155386e-16
  outer loop
    vertex 26.410041771004504 -15.21100583412059 -3.402517158107079
    vertex 26.410041771004508 -12.058031421751163 -6.2636908999999905
    vertex 26.410041771004504 -14.985468060984152 -2.8179941097688714
  endloop
endfacet
facet normal 1.0 -2.243709719798584e-17 3.9495891960155386e-16
  outer loop
    vertex 26.410041771004504 -14.985468060984152 -2.8179941097688714
    vertex 26.410041771004508 -12.058031421751163 -6.2636908999999905
    vertex 26.410041771004504 -14.918900998319252 -2.1950147302400618
  endloop
endfacet
facet normal 1.0 -2.243709719798584e-17 3.9495891960155386e-16
  outer loop
    vertex 26.410041771004504 -86.64818362175116 1.7563091000000097
    vertex 26.410041771004504 -81.4485219349839 0.145546665938165
    vertex 26.410041771004504 -12.058031421751163 1.7563091000000097
  endloop
endfacet
facet normal 1.0 -2.243709719798584e-17 3.9495891960155386e-16
  outer loop
    vertex 26.410041771004504 -81.4485219349839 0.145546665938165
    vertex 26.410041771004504 -86.64818362175116 1.7563091000000097
    vertex 26.410041771004504 -82.06742914651835 0.04813853146993748
  endloop
endfacet
facet normal 1.0 -2.243709719798584e-17 3.9495891960155386e-16
  outer loop
    vertex 26.410041771004504 -82.06742914651835 0.04813853146993748
    vertex 26.410041771004504 -86.64818362175116 1.7563091000000097
    vertex 26.410041771004504 -82.64003652586774 -0.20613547479997268
  endloop
endfacet
facet normal 1.0 -2.243709719798584e-17 3.9495891960155386e-16
  outer loop
    vertex 26.410041771004504 -82.64003652586774 -0.20613547479997268
    vertex 26.410041771004504 -86.64818362175116 1.7563091000000097
    vertex 26.410041771004504 -83.12732182640785 -0.5999469995519363
  endloop
endfacet
facet normal 1.0 -2.243709719798584e-17 3.9495891960155386e-16
  outer loop
    vertex 26.410041771004504 -83.12732182640785 -0.5999469995519363
    vertex 26.410041771004504 -86.64818362175116 1.7563091000000097
    vertex 26.410041771004504 -83.49607736018392 -1.1064584381784202
  endloop
endfacet
facet normal 1.0 -2.243709719798584e-17 3.9495891960155386e-16
  outer loop
    vertex 26.410041771004504 -83.49607736018392 -1.1064584381784202
    vertex 26.410041771004504 -86.64818362175116 1.7563091000000097
    vertex 26.410041771004504 -83.7211730469664 -1.6911518731867607
  endloop
endfacet
facet normal 1.0 -2.243709719798584e-17 3.9495891960155386e-16
  outer loop
    vertex 26.410041771004504 -83.7211730469664 -1.6911518731867607
    vertex 26.410041771004504 -86.64818362175116 1.7563091000000097
    vertex 26.410041771004504 -83.7872689876893 -2.3141814132327254
  endloop
endfacet
facet normal 1.0 -2.243709719798584e-17 3.9495891960155386e-16
  outer loop
    vertex 26.410041771004504 -12.058031421751163 1.7563091000000097
    vertex 26.410041771004504 -81.4485219349839 0.145546665938165
    vertex 26.410041771004504 -80.82549239493792 0.07945072521525347
  endloop
endfacet
facet normal 1.0 -2.243709719798584e-17 3.9495891960155386e-16
  outer loop
    vertex 26.410041771004504 -12.058031421751163 1.7563091000000097
    vertex 26.410041771004504 -80.82549239493792 0.07945072521525347
    vertex 26.410041771004504 -80.24079895992959 -0.14564496156723802
  endloop
endfacet
facet normal 1.0 -2.243709719798584e-17 3.9495891960155386e-16
  outer loop
    vertex 26.410041771004504 -12.058031421751163 1.7563091000000097
    vertex 26.410041771004504 -80.24079895992959 -0.14564496156723802
    vertex 26.410041771004504 -76.128793855813 -0.24369089999999577
  endloop
endfacet
facet normal 1.0 -2.243709719798584e-17 3.9495891960155386e-16
  outer loop
    vertex 26.410041771004504 -76.128793855813 -0.24369089999999577
    vertex 26.410041771004504 -80.24079895992959 -0.14564496156723802
    vertex 26.410041771004504 -79.7342875213031 -0.514400495343292
  endloop
endfacet
facet normal 1.0 -2.243709719798584e-17 3.9495891960155386e-16
  outer loop
    vertex 26.410041771004504 -76.128793855813 -0.24369089999999577
    vertex 26.410041771004504 -79.7342875213031 -0.514400495343292
    vertex 26.410041771004504 -79.34047599655113 -1.0016857958834062
  endloop
endfacet
facet normal 1.0 -2.243709719798584e-17 3.9495891960155386e-16
  outer loop
    vertex 26.410041771004504 -76.128793855813 -0.24369089999999577
    vertex 26.410041771004504 -79.34047599655113 -1.0016857958834062
    vertex 26.410041771004504 -79.08620199028122 -1.5742931752328024
  endloop
endfacet
facet normal 1.0 -2.243709719798584e-17 3.9495891960155386e-16
  outer loop
    vertex 26.410041771004504 -76.128793855813 -0.24369089999999577
    vertex 26.410041771004504 -79.08620199028122 -1.5742931752328024
    vertex 26.410041771004504 -78.988793855813 -2.193200386767256
  endloop
endfacet
facet normal 1.0 -2.243709719798584e-17 3.9495891960155386e-16
  outer loop
    vertex 26.410041771004504 -76.128793855813 -0.24369089999999577
    vertex 26.410041771004504 -78.988793855813 -2.193200386767256
    vertex 26.410041771004508 -76.128793855813 -6.2636908999999905
  endloop
endfacet
facet normal 1.0 -2.243709719798584e-17 3.9495891960155386e-16
  outer loop
    vertex 26.410041771004504 -12.058031421751163 1.7563091000000097
    vertex 26.410041771004504 -76.128793855813 -0.24369089999999577
    vertex 26.410041771004508 -22.57746624518307 -0.2436908999999959
  endloop
endfacet
facet normal 1.0 -2.243709719798584e-17 3.9495891960155386e-16
  outer loop
    vertex 26.410041771004504 -12.058031421751163 1.7563091000000097
    vertex 26.410041771004508 -22.57746624518307 -0.2436908999999959
    vertex 26.410041771004504 -17.995840487037718 0.04865164031194198
  endloop
endfacet
facet normal 1.0 -2.243709719798584e-17 3.9495891960155386e-16
  outer loop
    vertex 26.410041771004504 -17.995840487037718 0.04865164031194198
    vertex 26.410041771004508 -22.57746624518307 -0.2436908999999959
    vertex 26.410041771004504 -18.568639987075983 -0.20518928212934812
  endloop
endfacet
facet normal 1.0 -2.243709719798584e-17 3.9495891960155386e-16
  outer loop
    vertex 26.410041771004504 -18.568639987075983 -0.20518928212934812
    vertex 26.410041771004508 -22.57746624518307 -0.2436908999999959
    vertex 26.410041771004504 -19.056222952294213 -0.598632204519537
  endloop
endfacet
facet normal 1.0 -2.243709719798584e-17 3.9495891960155386e-16
  outer loop
    vertex 26.410041771004504 -19.056222952294213 -0.598632204519537
    vertex 26.410041771004508 -22.57746624518307 -0.2436908999999959
    vertex 26.410041771004504 -19.425361409381733 -1.1048646418929031
  endloop
endfacet
facet normal 1.0 -2.243709719798584e-17 3.9495891960155386e-16
  outer loop
    vertex 26.410041771004504 -19.425361409381733 -1.1048646418929031
    vertex 26.410041771004508 -22.57746624518307 -0.2436908999999959
    vertex 26.410041771004504 -19.65089918251817 -1.6893876902311105
  endloop
endfacet
facet normal 1.0 -2.243709719798584e-17 3.9495891960155386e-16
  outer loop
    vertex 26.410041771004504 -19.65089918251817 -1.6893876902311105
    vertex 26.410041771004508 -22.57746624518307 -0.2436908999999959
    vertex 26.410041771004504 -19.717466245183072 -2.3123670697599197
  endloop
endfacet
facet normal 1.0 -2.243709719798584e-17 3.9495891960155386e-16
  outer loop
    vertex 26.410041771004504 -12.058031421751163 1.7563091000000097
    vertex 26.410041771004504 -17.995840487037718 0.04865164031194198
    vertex 26.410041771004504 -17.37685979151109 0.14559172343191903
  endloop
endfacet
facet normal 1.0 -2.243709719798584e-17 3.9495891960155386e-16
  outer loop
    vertex 26.410041771004504 -12.058031421751163 1.7563091000000097
    vertex 26.410041771004504 -17.37685979151109 0.14559172343191903
    vertex 26.410041771004504 -16.75388041198228 0.07902466076701883
  endloop
endfacet
facet normal 1.0 -2.243709719798584e-17 3.9495891960155386e-16
  outer loop
    vertex 26.410041771004504 -12.058031421751163 1.7563091000000097
    vertex 26.410041771004504 -16.75388041198228 0.07902466076701883
    vertex 26.410041771004504 -16.169357363644075 -0.1465131123694187
  endloop
endfacet
facet normal 1.0 -2.243709719798584e-17 3.9495891960155386e-16
  outer loop
    vertex 26.410041771004504 -12.058031421751163 1.7563091000000097
    vertex 26.410041771004504 -16.169357363644075 -0.1465131123694187
    vertex 26.410041771004504 -15.66312492627071 -0.5156515694569377
  endloop
endfacet
facet normal 1.0 -2.243709719798584e-17 3.9495891960155386e-16
  outer loop
    vertex 26.410041771004504 -12.058031421751163 1.7563091000000097
    vertex 26.410041771004504 -15.66312492627071 -0.5156515694569377
    vertex 26.410041771004504 -15.269682003880519 -1.0032345346751694
  endloop
endfacet
facet normal 1.0 -2.243709719798584e-17 3.9495891960155386e-16
  outer loop
    vertex 26.410041771004504 -12.058031421751163 1.7563091000000097
    vertex 26.410041771004504 -15.269682003880519 -1.0032345346751694
    vertex 26.410041771004504 -15.015841081439229 -1.576034034713436
  endloop
endfacet
facet normal 1.0 -2.243709719798584e-17 3.9495891960155386e-16
  outer loop
    vertex 26.410041771004504 -12.058031421751163 1.7563091000000097
    vertex 26.410041771004504 -15.015841081439229 -1.576034034713436
    vertex 26.410041771004504 -14.918900998319252 -2.1950147302400618
  endloop
endfacet
facet normal 1.0 -2.243709719798584e-17 3.9495891960155386e-16
  outer loop
    vertex 26.410041771004504 -12.058031421751163 1.7563091000000097
    vertex 26.410041771004504 -14.918900998319252 -2.1950147302400618
    vertex 26.410041771004508 -12.058031421751163 -6.2636908999999905
  endloop
endfacet
facet normal 3.3366218280082864e-16 6.75923448596735e-17 -1.0
  outer loop
    vertex 26.410041771004508 -76.128793855813 -6.2636908999999905
    vertex 16.641727446359756 -82.25811962175113 -6.263690899999997
    vertex 16.641727446359756 -76.128793855813 -6.263690899999994
  endloop
endfacet
facet normal 3.3366218280082864e-16 6.75923448596735e-17 -1.0
  outer loop
    vertex 16.641727446359756 -82.25811962175113 -6.263690899999997
    vertex 9.45458726366121 -86.64818362175116 -6.263690899999997
    vertex 9.45458726366121 -82.25811962175113 -6.263690899999997
  endloop
endfacet
facet normal 3.3366218280082864e-16 6.75923448596735e-17 -1.0
  outer loop
    vertex 9.45458726366121 -86.64818362175116 -6.263690899999997
    vertex 16.641727446359756 -82.25811962175113 -6.263690899999997
    vertex 26.410041771004508 -86.64818362175116 -6.2636908999999905
  endloop
endfacet
facet normal 3.3366218280082864e-16 6.75923448596735e-17 -1.0
  outer loop
    vertex 26.410041771004508 -86.64818362175116 -6.2636908999999905
    vertex 16.641727446359756 -82.25811962175113 -6.263690899999997
    vertex 26.410041771004508 -76.128793855813 -6.2636908999999905
  endloop
endfacet
facet normal -1.0 1.840311049035121e-16 -5.621195646274881e-16
  outer loop
    vertex 16.641727446359756 -76.128793855813 -0.2436908999999959
    vertex 16.641727446359756 -82.25811962175113 -6.263690899999997
    vertex 16.641727446359752 -82.25811962175113 -0.24369089999999802
  endloop
endfacet
facet normal -1.0 1.840311049035121e-16 -5.621195646274881e-16
  outer loop
    vertex 16.641727446359756 -82.25811962175113 -6.263690899999997
    vertex 16.641727446359756 -76.128793855813 -0.2436908999999959
    vertex 16.641727446359756 -76.128793855813 -6.263690899999994
  endloop
endfacet
facet normal 0.0 -1.0 0.0
  outer loop
    vertex 26.410041771004508 -22.57746624518307 -6.2636908999999905
    vertex 16.641727446359756 -22.57746624518307 -0.243690899999996
    vertex 16.641727446359756 -22.57746624518307 -6.263690899999994
  endloop
endfacet
facet normal 0.0 -1.0 0.0
  outer loop
    vertex 16.641727446359756 -22.57746624518307 -0.243690899999996
    vertex 26.410041771004508 -22.57746624518307 -6.2636908999999905
    vertex 26.410041771004508 -22.57746624518307 -0.2436908999999959
  endloop
endfacet
facet normal -0.0 1.0 -0.0
  outer loop
    vertex 16.641727446359756 -76.128793855813 -0.2436908999999959
    vertex 26.410041771004508 -76.128793855813 -6.2636908999999905
    vertex 16.641727446359756 -76.128793855813 -6.263690899999994
  endloop
endfacet
facet normal -0.0 1.0 -0.0
  outer loop
    vertex 26.410041771004508 -76.128793855813 -6.2636908999999905
    vertex 16.641727446359756 -76.128793855813 -0.2436908999999959
    vertex 26.410041771004504 -76.128793855813 -0.24369089999999577
  endloop
endfacet
facet normal 2.9593374002123956e-16 1.800969987332751e-18 -1.0
  outer loop
    vertex 16.641727446359752 -16.643121872346644 -0.24369089999999619
    vertex 12.96208176366128 -22.949923772346636 -0.2436909
    vertex 12.96208176366128 -16.643121872346644 -0.2436909
  endloop
endfacet
facet normal 2.9593374002123956e-16 1.800969987332751e-18 -1.0
  outer loop
    vertex 12.96208176366128 -22.949923772346636 -0.2436909
    vertex 16.641727446359752 -16.643121872346644 -0.24369089999999619
    vertex 14.992856763661276 -30.72981827234664 -0.2436909
  endloop
endfacet
facet normal 2.9593374002123956e-16 1.800969987332751e-18 -1.0
  outer loop
    vertex 14.992856763661276 -30.72981827234664 -0.2436909
    vertex 16.641727446359752 -16.643121872346644 -0.24369089999999619
    vertex 14.992856763661276 -59.22648542463507 -0.2436909
  endloop
endfacet
facet normal 2.9593374002123956e-16 1.800969987332751e-18 -1.0
  outer loop
    vertex 14.992856763661276 -59.22648542463507 -0.2436909
    vertex 9.45458726366121 -71.43245161851983 -0.2436909
    vertex 9.45458726366121 -59.22648542463507 -0.2436909
  endloop
endfacet
facet normal 2.9593374002123956e-16 1.800969987332751e-18 -1.0
  outer loop
    vertex 9.45458726366121 -71.43245161851983 -0.2436909
    vertex 14.992856763661276 -59.22648542463507 -0.2436909
    vertex 12.235935463661225 -71.43245161851983 -0.2436909
  endloop
endfacet
facet normal 2.9593374002123956e-16 1.800969987332751e-18 -1.0
  outer loop
    vertex 12.235935463661225 -71.43245161851983 -0.2436909
    vertex 14.992856763661276 -59.22648542463507 -0.2436909
    vertex 12.235935463661225 -82.25811962175113 -0.2436909
  endloop
endfacet
facet normal 2.9593374002123956e-16 1.800969987332751e-18 -1.0
  outer loop
    vertex 12.235935463661225 -82.25811962175113 -0.2436909
    vertex 14.992856763661276 -59.22648542463507 -0.2436909
    vertex 16.641727446359752 -82.25811962175113 -0.24369089999999802
  endloop
endfacet
facet normal 2.9593374002123956e-16 1.800969987332751e-18 -1.0
  outer loop
    vertex 16.641727446359752 -82.25811962175113 -0.24369089999999802
    vertex 14.992856763661276 -59.22648542463507 -0.2436909
    vertex 16.641727446359752 -16.643121872346644 -0.24369089999999619
  endloop
endfacet
facet normal 2.9593374002123956e-16 1.800969987332751e-18 -1.0
  outer loop
    vertex 16.641727446359752 -82.25811962175113 -0.24369089999999802
    vertex 16.641727446359752 -16.643121872346644 -0.24369089999999619
    vertex 16.641727446359756 -22.57746624518307 -0.243690899999996
  endloop
endfacet
facet normal 2.9593374002123956e-16 1.800969987332751e-18 -1.0
  outer loop
    vertex 16.641727446359752 -82.25811962175113 -0.24369089999999802
    vertex 16.641727446359756 -22.57746624518307 -0.243690899999996
    vertex 16.641727446359756 -76.128793855813 -0.2436908999999959
  endloop
endfacet
facet normal 2.9593374002123956e-16 1.800969987332751e-18 -1.0
  outer loop
    vertex 16.641727446359756 -76.128793855813 -0.2436908999999959
    vertex 16.641727446359756 -22.57746624518307 -0.243690899999996
    vertex 26.410041771004508 -22.57746624518307 -0.2436908999999959
  endloop
endfacet
facet normal 2.9593374002123956e-16 1.800969987332751e-18 -1.0
  outer loop
    vertex 16.641727446359756 -76.128793855813 -0.2436908999999959
    vertex 26.410041771004508 -22.57746624518307 -0.2436908999999959
    vertex 26.410041771004504 -76.128793855813 -0.24369089999999577
  endloop
endfacet
facet normal 2.9593374002123956e-16 1.800969987332751e-18 -1.0
  outer loop
    vertex 12.96208176366128 -22.949923772346636 -0.2436909
    vertex 10.234844063661223 -30.72981827234664 -0.2436909
    vertex 10.234844063661223 -22.949923772346636 -0.2436909
  endloop
endfacet
facet normal 2.9593374002123956e-16 1.800969987332751e-18 -1.0
  outer loop
    vertex 10.234844063661223 -30.72981827234664 -0.2436909
    vertex 12.96208176366128 -22.949923772346636 -0.2436909
    vertex 14.992856763661276 -30.72981827234664 -0.2436909
  endloop
endfacet
endsolid SensorBar_4
