solid Untitled-59d6799d
facet normal 0.0 0.0 -1.0
  outer loop
    vertex 18.19762433163141 85.10234685054067 0.0
    vertex 28.197624331631413 75.10234685054067 0.0
    vertex 18.19762433163141 12.102346850540671 0.0
  endloop
endfacet
facet normal 0.0 0.0 -1.0
  outer loop
    vertex 28.197624331631413 75.10234685054067 0.0
    vertex 18.19762433163141 85.10234685054067 0.0
    vertex 150.1976243316314 85.10234685054067 0.0
  endloop
endfacet
facet normal 0.0 0.0 -1.0
  outer loop
    vertex 18.19762433163141 12.102346850540671 0.0
    vertex 28.197624331631413 75.10234685054067 0.0
    vertex 28.19762433163141 22.10234685054067 0.0
  endloop
endfacet
facet normal 0.0 0.0 -1.0
  outer loop
    vertex 28.197624331631413 75.10234685054067 0.0
    vertex 150.1976243316314 85.10234685054067 0.0
    vertex 101.65469733163143 75.10234685054067 0.0
  endloop
endfacet
facet normal 0.0 0.0 -1.0
  outer loop
    vertex 101.65469733163143 75.10234685054067 0.0
    vertex 150.1976243316314 85.10234685054067 0.0
    vertex 101.65469733163143 22.10234685054067 0.0
  endloop
endfacet
facet normal 0.0 0.0 -1.0
  outer loop
    vertex 28.19762433163141 22.10234685054067 0.0
    vertex 150.1976243316314 12.102346850540671 0.0
    vertex 18.19762433163141 12.102346850540671 0.0
  endloop
endfacet
facet normal 0.0 0.0 -1.0
  outer loop
    vertex 150.1976243316314 12.102346850540671 0.0
    vertex 28.19762433163141 22.10234685054067 0.0
    vertex 101.65469733163143 22.10234685054067 0.0
  endloop
endfacet
facet normal 0.0 0.0 -1.0
  outer loop
    vertex 150.1976243316314 12.102346850540671 0.0
    vertex 101.65469733163143 22.10234685054067 0.0
    vertex 150.1976243316314 85.10234685054067 0.0
  endloop
endfacet
facet normal -0.0 -0.0 1.0
  outer loop
    vertex 18.19762433163141 12.102346850540671 3.0
    vertex 28.19762433163141 22.10234685054067 3.0
    vertex 18.19762433163141 85.10234685054067 3.0
  endloop
endfacet
facet normal -0.0 -0.0 1.0
  outer loop
    vertex 28.19762433163141 22.10234685054067 3.0
    vertex 18.19762433163141 12.102346850540671 3.0
    vertex 150.1976243316314 12.102346850540671 3.0
  endloop
endfacet
facet normal -0.0 -0.0 1.0
  outer loop
    vertex 28.19762433163141 22.10234685054067 3.0
    vertex 150.1976243316314 12.102346850540671 3.0
    vertex 101.65469733163143 22.10234685054067 3.0
  endloop
endfacet
facet normal -0.0 -0.0 1.0
  outer loop
    vertex 101.65469733163143 22.10234685054067 3.0
    vertex 150.1976243316314 12.102346850540671 3.0
    vertex 101.65469733163143 75.10234685054067 3.0
  endloop
endfacet
facet normal -0.0 -0.0 1.0
  outer loop
    vertex 18.19762433163141 85.10234685054067 3.0
    vertex 28.197624331631413 75.10234685054067 3.0
    vertex 150.1976243316314 85.10234685054067 3.0
  endloop
endfacet
facet normal -0.0 -0.0 1.0
  outer loop
    vertex 28.197624331631413 75.10234685054067 3.0
    vertex 18.19762433163141 85.10234685054067 3.0
    vertex 28.19762433163141 22.10234685054067 3.0
  endloop
endfacet
facet normal -0.0 -0.0 1.0
  outer loop
    vertex 150.1976243316314 85.10234685054067 3.0
    vertex 28.197624331631413 75.10234685054067 3.0
    vertex 101.65469733163143 75.10234685054067 3.0
  endloop
endfacet
facet normal -0.0 -0.0 1.0
  outer loop
    vertex 150.1976243316314 85.10234685054067 3.0
    vertex 101.65469733163143 75.10234685054067 3.0
    vertex 150.1976243316314 12.102346850540671 3.0
  endloop
endfacet
facet normal -0.0 1.0 0.0
  outer loop
    vertex 18.19762433163141 85.10234685054067 3.0
    vertex 150.1976243316314 85.10234685054067 0.0
    vertex 18.19762433163141 85.10234685054067 0.0
  endloop
endfacet
facet normal -0.0 1.0 0.0
  outer loop
    vertex 150.1976243316314 85.10234685054067 0.0
    vertex 18.19762433163141 85.10234685054067 3.0
    vertex 150.1976243316314 85.10234685054067 3.0
  endloop
endfacet
facet normal 1.0 0.0 0.0
  outer loop
    vertex 150.1976243316314 85.10234685054067 0.0
    vertex 150.1976243316314 12.102346850540671 3.0
    vertex 150.1976243316314 12.102346850540671 0.0
  endloop
endfacet
facet normal 1.0 0.0 0.0
  outer loop
    vertex 150.1976243316314 12.102346850540671 3.0
    vertex 150.1976243316314 85.10234685054067 0.0
    vertex 150.1976243316314 85.10234685054067 3.0
  endloop
endfacet
facet normal -0.0 -1.0 -0.0
  outer loop
    vertex 150.1976243316314 12.102346850540671 3.0
    vertex 18.19762433163141 12.102346850540671 0.0
    vertex 150.1976243316314 12.102346850540671 0.0
  endloop
endfacet
facet normal -0.0 -1.0 -0.0
  outer loop
    vertex 18.19762433163141 12.102346850540671 0.0
    vertex 150.1976243316314 12.102346850540671 3.0
    vertex 18.19762433163141 12.102346850540671 3.0
  endloop
endfacet
facet normal -1.0 0.0 0.0
  outer loop
    vertex 18.19762433163141 85.10234685054067 3.0
    vertex 18.19762433163141 12.102346850540671 0.0
    vertex 18.19762433163141 12.102346850540671 3.0
  endloop
endfacet
facet normal -1.0 0.0 0.0
  outer loop
    vertex 18.19762433163141 12.102346850540671 0.0
    vertex 18.19762433163141 85.10234685054067 3.0
    vertex 18.19762433163141 85.10234685054067 0.0
  endloop
endfacet
facet normal 1.0 -1.0641382953010936e-16 0.0
  outer loop
    vertex 28.197624331631413 75.10234685054067 0.0
    vertex 28.19762433163141 22.10234685054067 3.0
    vertex 28.19762433163141 22.10234685054067 0.0
  endloop
endfacet
facet normal 1.0 -1.0641382953010936e-16 0.0
  outer loop
    vertex 28.19762433163141 22.10234685054067 3.0
    vertex 28.197624331631413 75.10234685054067 0.0
    vertex 28.197624331631413 75.10234685054067 3.0
  endloop
endfacet
facet normal -0.0 1.0 0.0
  outer loop
    vertex 28.19762433163141 22.10234685054067 3.0
    vertex 101.65469733163143 22.10234685054067 0.0
    vertex 28.19762433163141 22.10234685054067 0.0
  endloop
endfacet
facet normal -0.0 1.0 0.0
  outer loop
    vertex 101.65469733163143 22.10234685054067 0.0
    vertex 28.19762433163141 22.10234685054067 3.0
    vertex 101.65469733163143 22.10234685054067 3.0
  endloop
endfacet
facet normal -1.0 0.0 0.0
  outer loop
    vertex 101.65469733163143 75.10234685054067 3.0
    vertex 101.65469733163143 22.10234685054067 0.0
    vertex 101.65469733163143 22.10234685054067 3.0
  endloop
endfacet
facet normal -1.0 0.0 0.0
  outer loop
    vertex 101.65469733163143 22.10234685054067 0.0
    vertex 101.65469733163143 75.10234685054067 3.0
    vertex 101.65469733163143 75.10234685054067 0.0
  endloop
endfacet
facet normal -0.0 -1.0 -0.0
  outer loop
    vertex 101.65469733163143 75.10234685054067 3.0
    vertex 28.197624331631413 75.10234685054067 0.0
    vertex 101.65469733163143 75.10234685054067 0.0
  endloop
endfacet
facet normal -0.0 -1.0 -0.0
  outer loop
    vertex 28.197624331631413 75.10234685054067 0.0
    vertex 101.65469733163143 75.10234685054067 3.0
    vertex 28.197624331631413 75.10234685054067 3.0
  endloop
endfacet
endsolid Untitled-59d6799d
