solid 9_1
facet normal 0.0 0.0 -1.0
  outer loop
    vertex 5.084038011409388 15.587269237311585 0.0
    vertex 5.216300529071148 13.520945519855935 0.0
    vertex 5.014150931126713 14.545401033190076 0.0
  endloop
endfacet
facet normal 0.0 0.0 -1.0
  outer loop
    vertex 5.216300529071148 13.520945519855935 0.0
    vertex 5.084038011409388 15.587269237311585 0.0
    vertex 5.421199080891766 16.575548535878195 0.0
  endloop
endfacet
facet normal 0.0 0.0 -1.0
  outer loop
    vertex 5.216300529071148 13.520945519855935 0.0
    vertex 5.421199080891766 16.575548535878195 0.0
    vertex 5.676710644210784 12.583717647550104 0.0
  endloop
endfacet
facet normal 0.0 0.0 -1.0
  outer loop
    vertex 5.676710644210784 12.583717647550104 0.0
    vertex 5.421199080891766 16.575548535878195 0.0
    vertex 6.002657169873637 17.442889327901355 0.0
  endloop
endfacet
facet normal 0.0 0.0 -1.0
  outer loop
    vertex 5.676710644210784 12.583717647550104 0.0
    vertex 6.002657169873637 17.442889327901355 0.0
    vertex 6.364005088062548 11.797587946927925 0.0
  endloop
endfacet
facet normal 0.0 0.0 -1.0
  outer loop
    vertex 6.364005088062548 11.797587946927925 0.0
    vertex 6.002657169873637 17.442889327901355 0.0
    vertex 6.788786870495814 18.130183771753117 0.0
  endloop
endfacet
facet normal 0.0 0.0 -1.0
  outer loop
    vertex 6.364005088062548 11.797587946927925 0.0
    vertex 6.788786870495814 18.130183771753117 0.0
    vertex 7.2313458800857076 11.216129857946054 0.0
  endloop
endfacet
facet normal 0.0 0.0 -1.0
  outer loop
    vertex 7.2313458800857076 11.216129857946054 0.0
    vertex 6.788786870495814 18.130183771753117 0.0
    vertex 7.726014742801648 18.590593886892755 0.0
  endloop
endfacet
facet normal 0.0 0.0 -1.0
  outer loop
    vertex 7.2313458800857076 11.216129857946054 0.0
    vertex 7.726014742801648 18.590593886892755 0.0
    vertex 8.219625178652318 10.878968788463675 0.0
  endloop
endfacet
facet normal 0.0 0.0 -1.0
  outer loop
    vertex 8.219625178652318 10.878968788463675 0.0
    vertex 7.726014742801648 18.590593886892755 0.0
    vertex 8.750470256135788 18.79274348483719 0.0
  endloop
endfacet
facet normal 0.0 0.0 -1.0
  outer loop
    vertex 8.219625178652318 10.878968788463675 0.0
    vertex 8.750470256135788 18.79274348483719 0.0
    vertex 9.261493382773828 10.809081708181001 0.0
  endloop
endfacet
facet normal 0.0 0.0 -1.0
  outer loop
    vertex 9.261493382773828 10.809081708181001 0.0
    vertex 8.750470256135788 18.79274348483719 0.0
    vertex 9.792338460257298 18.722856404554516 0.0
  endloop
endfacet
facet normal 0.0 0.0 -1.0
  outer loop
    vertex 9.261493382773828 10.809081708181001 0.0
    vertex 9.792338460257298 18.722856404554516 0.0
    vertex 10.285948896107968 11.011231306125435 0.0
  endloop
endfacet
facet normal 0.0 0.0 -1.0
  outer loop
    vertex 10.285948896107968 11.011231306125435 0.0
    vertex 9.792338460257298 18.722856404554516 0.0
    vertex 10.780617758823906 18.38569533507214 0.0
  endloop
endfacet
facet normal 0.0 0.0 -1.0
  outer loop
    vertex 10.285948896107968 11.011231306125435 0.0
    vertex 10.780617758823906 18.38569533507214 0.0
    vertex 11.223176768413799 11.47164142126507 0.0
  endloop
endfacet
facet normal 0.0 0.0 -1.0
  outer loop
    vertex 11.223176768413799 11.47164142126507 0.0
    vertex 10.780617758823906 18.38569533507214 0.0
    vertex 11.647958550847068 17.804237246090267 0.0
  endloop
endfacet
facet normal 0.0 0.0 -1.0
  outer loop
    vertex 11.223176768413799 11.47164142126507 0.0
    vertex 11.647958550847068 17.804237246090267 0.0
    vertex 12.009306469035979 12.158935865116836 0.0
  endloop
endfacet
facet normal 0.0 0.0 -1.0
  outer loop
    vertex 12.009306469035979 12.158935865116836 0.0
    vertex 11.647958550847068 17.804237246090267 0.0
    vertex 12.335252994698829 17.01810754546809 0.0
  endloop
endfacet
facet normal 0.0 0.0 -1.0
  outer loop
    vertex 12.009306469035979 12.158935865116836 0.0
    vertex 12.335252994698829 17.01810754546809 0.0
    vertex 12.59076455801785 13.026276657139997 0.0
  endloop
endfacet
facet normal 0.0 0.0 -1.0
  outer loop
    vertex 12.59076455801785 13.026276657139997 0.0
    vertex 12.335252994698829 17.01810754546809 0.0
    vertex 12.795663109838465 16.080879673162254 0.0
  endloop
endfacet
facet normal 0.0 0.0 -1.0
  outer loop
    vertex 12.59076455801785 13.026276657139997 0.0
    vertex 12.795663109838465 16.080879673162254 0.0
    vertex 12.92792562750023 14.014555955706609 0.0
  endloop
endfacet
facet normal 0.0 0.0 -1.0
  outer loop
    vertex 12.92792562750023 14.014555955706609 0.0
    vertex 12.795663109838465 16.080879673162254 0.0
    vertex 12.997812707782902 15.056424159828115 0.0
  endloop
endfacet
facet normal -0.0 -0.0 1.0
  outer loop
    vertex 5.216300529071148 13.520945519855935 1.0
    vertex 5.084038011409388 15.587269237311585 1.0
    vertex 5.014150931126713 14.545401033190076 1.0
  endloop
endfacet
facet normal -0.0 -0.0 1.0
  outer loop
    vertex 5.084038011409388 15.587269237311585 1.0
    vertex 5.216300529071148 13.520945519855935 1.0
    vertex 5.421199080891766 16.575548535878195 1.0
  endloop
endfacet
facet normal -0.0 -0.0 1.0
  outer loop
    vertex 5.421199080891766 16.575548535878195 1.0
    vertex 5.216300529071148 13.520945519855935 1.0
    vertex 5.676710644210784 12.583717647550104 1.0
  endloop
endfacet
facet normal -0.0 -0.0 1.0
  outer loop
    vertex 5.421199080891766 16.575548535878195 1.0
    vertex 5.676710644210784 12.583717647550104 1.0
    vertex 6.002657169873637 17.442889327901355 1.0
  endloop
endfacet
facet normal -0.0 -0.0 1.0
  outer loop
    vertex 6.002657169873637 17.442889327901355 1.0
    vertex 5.676710644210784 12.583717647550104 1.0
    vertex 6.364005088062548 11.797587946927925 1.0
  endloop
endfacet
facet normal -0.0 -0.0 1.0
  outer loop
    vertex 6.002657169873637 17.442889327901355 1.0
    vertex 6.364005088062548 11.797587946927925 1.0
    vertex 6.788786870495814 18.130183771753117 1.0
  endloop
endfacet
facet normal -0.0 -0.0 1.0
  outer loop
    vertex 6.788786870495814 18.130183771753117 1.0
    vertex 6.364005088062548 11.797587946927925 1.0
    vertex 7.2313458800857076 11.216129857946054 1.0
  endloop
endfacet
facet normal -0.0 -0.0 1.0
  outer loop
    vertex 6.788786870495814 18.130183771753117 1.0
    vertex 7.2313458800857076 11.216129857946054 1.0
    vertex 7.005981819454808 14.800912596509095 1.0
  endloop
endfacet
facet normal -0.0 -0.0 1.0
  outer loop
    vertex 7.005981819454808 14.800912596509095 1.0
    vertex 7.2313458800857076 11.216129857946054 1.0
    vertex 7.074130166876672 14.283274506304055 1.0
  endloop
endfacet
facet normal -0.0 -0.0 1.0
  outer loop
    vertex 7.074130166876672 14.283274506304055 1.0
    vertex 7.2313458800857076 11.216129857946054 1.0
    vertex 7.2739310118859315 13.800912596509095 1.0
  endloop
endfacet
facet normal -0.0 -0.0 1.0
  outer loop
    vertex 7.2739310118859315 13.800912596509095 1.0
    vertex 7.2313458800857076 11.216129857946054 1.0
    vertex 8.219625178652318 10.878968788463675 1.0
  endloop
endfacet
facet normal -0.0 -0.0 1.0
  outer loop
    vertex 7.2739310118859315 13.800912596509095 1.0
    vertex 8.219625178652318 10.878968788463675 1.0
    vertex 7.591768257081714 13.386699034136 1.0
  endloop
endfacet
facet normal -0.0 -0.0 1.0
  outer loop
    vertex 7.591768257081714 13.386699034136 1.0
    vertex 8.219625178652318 10.878968788463675 1.0
    vertex 8.005981819454808 13.068861788940216 1.0
  endloop
endfacet
facet normal -0.0 -0.0 1.0
  outer loop
    vertex 8.005981819454808 13.068861788940216 1.0
    vertex 8.219625178652318 10.878968788463675 1.0
    vertex 8.488343729249767 12.869060943930958 1.0
  endloop
endfacet
facet normal -0.0 -0.0 1.0
  outer loop
    vertex 8.488343729249767 12.869060943930958 1.0
    vertex 8.219625178652318 10.878968788463675 1.0
    vertex 9.261493382773828 10.809081708181001 1.0
  endloop
endfacet
facet normal -0.0 -0.0 1.0
  outer loop
    vertex 8.488343729249767 12.869060943930958 1.0
    vertex 9.261493382773828 10.809081708181001 1.0
    vertex 9.005981819454808 12.800912596509095 1.0
  endloop
endfacet
facet normal -0.0 -0.0 1.0
  outer loop
    vertex 9.005981819454808 12.800912596509095 1.0
    vertex 9.261493382773828 10.809081708181001 1.0
    vertex 9.52361990965985 12.869060943930958 1.0
  endloop
endfacet
facet normal -0.0 -0.0 1.0
  outer loop
    vertex 9.52361990965985 12.869060943930958 1.0
    vertex 9.261493382773828 10.809081708181001 1.0
    vertex 10.285948896107968 11.011231306125435 1.0
  endloop
endfacet
facet normal -0.0 -0.0 1.0
  outer loop
    vertex 9.52361990965985 12.869060943930958 1.0
    vertex 10.285948896107968 11.011231306125435 1.0
    vertex 10.005981819454808 13.06886178894022 1.0
  endloop
endfacet
facet normal -0.0 -0.0 1.0
  outer loop
    vertex 10.005981819454808 13.06886178894022 1.0
    vertex 10.285948896107968 11.011231306125435 1.0
    vertex 10.420195381827902 13.386699034136 1.0
  endloop
endfacet
facet normal -0.0 -0.0 1.0
  outer loop
    vertex 10.420195381827902 13.386699034136 1.0
    vertex 10.285948896107968 11.011231306125435 1.0
    vertex 11.223176768413799 11.47164142126507 1.0
  endloop
endfacet
facet normal -0.0 -0.0 1.0
  outer loop
    vertex 10.420195381827902 13.386699034136 1.0
    vertex 11.223176768413799 11.47164142126507 1.0
    vertex 10.738032627023687 13.800912596509095 1.0
  endloop
endfacet
facet normal -0.0 -0.0 1.0
  outer loop
    vertex 10.738032627023687 13.800912596509095 1.0
    vertex 11.223176768413799 11.47164142126507 1.0
    vertex 10.937833472032946 14.283274506304055 1.0
  endloop
endfacet
facet normal -0.0 -0.0 1.0
  outer loop
    vertex 10.937833472032946 14.283274506304055 1.0
    vertex 11.223176768413799 11.47164142126507 1.0
    vertex 11.005981819454806 14.800912596509095 1.0
  endloop
endfacet
facet normal -0.0 -0.0 1.0
  outer loop
    vertex 6.788786870495814 18.130183771753117 1.0
    vertex 7.074130166876672 15.318550686714136 1.0
    vertex 7.726014742801648 18.590593886892755 1.0
  endloop
endfacet
facet normal -0.0 -0.0 1.0
  outer loop
    vertex 7.074130166876672 15.318550686714136 1.0
    vertex 6.788786870495814 18.130183771753117 1.0
    vertex 7.005981819454808 14.800912596509095 1.0
  endloop
endfacet
facet normal -0.0 -0.0 1.0
  outer loop
    vertex 7.726014742801648 18.590593886892755 1.0
    vertex 7.074130166876672 15.318550686714136 1.0
    vertex 7.273931011885931 15.800912596509097 1.0
  endloop
endfacet
facet normal -0.0 -0.0 1.0
  outer loop
    vertex 7.726014742801648 18.590593886892755 1.0
    vertex 7.273931011885931 15.800912596509097 1.0
    vertex 7.591768257081712 16.21512615888219 1.0
  endloop
endfacet
facet normal -0.0 -0.0 1.0
  outer loop
    vertex 7.726014742801648 18.590593886892755 1.0
    vertex 7.591768257081712 16.21512615888219 1.0
    vertex 8.005981819454808 16.53296340407797 1.0
  endloop
endfacet
facet normal -0.0 -0.0 1.0
  outer loop
    vertex 7.726014742801648 18.590593886892755 1.0
    vertex 8.005981819454808 16.53296340407797 1.0
    vertex 8.750470256135788 18.79274348483719 1.0
  endloop
endfacet
facet normal -0.0 -0.0 1.0
  outer loop
    vertex 8.750470256135788 18.79274348483719 1.0
    vertex 8.005981819454808 16.53296340407797 1.0
    vertex 8.488343729249765 16.732764249087232 1.0
  endloop
endfacet
facet normal -0.0 -0.0 1.0
  outer loop
    vertex 8.750470256135788 18.79274348483719 1.0
    vertex 8.488343729249765 16.732764249087232 1.0
    vertex 9.005981819454808 16.800912596509097 1.0
  endloop
endfacet
facet normal -0.0 -0.0 1.0
  outer loop
    vertex 8.750470256135788 18.79274348483719 1.0
    vertex 9.005981819454808 16.800912596509097 1.0
    vertex 9.792338460257298 18.722856404554516 1.0
  endloop
endfacet
facet normal -0.0 -0.0 1.0
  outer loop
    vertex 9.792338460257298 18.722856404554516 1.0
    vertex 9.005981819454808 16.800912596509097 1.0
    vertex 9.52361990965985 16.732764249087232 1.0
  endloop
endfacet
facet normal -0.0 -0.0 1.0
  outer loop
    vertex 9.792338460257298 18.722856404554516 1.0
    vertex 9.52361990965985 16.732764249087232 1.0
    vertex 10.005981819454806 16.532963404077975 1.0
  endloop
endfacet
facet normal -0.0 -0.0 1.0
  outer loop
    vertex 9.792338460257298 18.722856404554516 1.0
    vertex 10.005981819454806 16.532963404077975 1.0
    vertex 10.780617758823906 18.38569533507214 1.0
  endloop
endfacet
facet normal -0.0 -0.0 1.0
  outer loop
    vertex 10.780617758823906 18.38569533507214 1.0
    vertex 10.005981819454806 16.532963404077975 1.0
    vertex 10.420195381827902 16.215126158882192 1.0
  endloop
endfacet
facet normal -0.0 -0.0 1.0
  outer loop
    vertex 10.780617758823906 18.38569533507214 1.0
    vertex 10.420195381827902 16.215126158882192 1.0
    vertex 10.738032627023685 15.800912596509097 1.0
  endloop
endfacet
facet normal -0.0 -0.0 1.0
  outer loop
    vertex 10.780617758823906 18.38569533507214 1.0
    vertex 10.738032627023685 15.800912596509097 1.0
    vertex 10.937833472032944 15.318550686714138 1.0
  endloop
endfacet
facet normal -0.0 -0.0 1.0
  outer loop
    vertex 10.780617758823906 18.38569533507214 1.0
    vertex 10.937833472032944 15.318550686714138 1.0
    vertex 11.647958550847068 17.804237246090267 1.0
  endloop
endfacet
facet normal -0.0 -0.0 1.0
  outer loop
    vertex 11.647958550847068 17.804237246090267 1.0
    vertex 10.937833472032944 15.318550686714138 1.0
    vertex 11.005981819454806 14.800912596509095 1.0
  endloop
endfacet
facet normal -0.0 -0.0 1.0
  outer loop
    vertex 11.647958550847068 17.804237246090267 1.0
    vertex 11.005981819454806 14.800912596509095 1.0
    vertex 11.223176768413799 11.47164142126507 1.0
  endloop
endfacet
facet normal -0.0 -0.0 1.0
  outer loop
    vertex 11.647958550847068 17.804237246090267 1.0
    vertex 11.223176768413799 11.47164142126507 1.0
    vertex 12.009306469035979 12.158935865116836 1.0
  endloop
endfacet
facet normal -0.0 -0.0 1.0
  outer loop
    vertex 11.647958550847068 17.804237246090267 1.0
    vertex 12.009306469035979 12.158935865116836 1.0
    vertex 12.335252994698829 17.01810754546809 1.0
  endloop
endfacet
facet normal -0.0 -0.0 1.0
  outer loop
    vertex 12.335252994698829 17.01810754546809 1.0
    vertex 12.009306469035979 12.158935865116836 1.0
    vertex 12.59076455801785 13.026276657139997 1.0
  endloop
endfacet
facet normal -0.0 -0.0 1.0
  outer loop
    vertex 12.335252994698829 17.01810754546809 1.0
    vertex 12.59076455801785 13.026276657139997 1.0
    vertex 12.795663109838465 16.080879673162254 1.0
  endloop
endfacet
facet normal -0.0 -0.0 1.0
  outer loop
    vertex 12.795663109838465 16.080879673162254 1.0
    vertex 12.59076455801785 13.026276657139997 1.0
    vertex 12.92792562750023 14.014555955706609 1.0
  endloop
endfacet
facet normal -0.0 -0.0 1.0
  outer loop
    vertex 12.795663109838465 16.080879673162254 1.0
    vertex 12.92792562750023 14.014555955706609 1.0
    vertex 12.997812707782902 15.056424159828115 1.0
  endloop
endfacet
facet normal 0.8975477032281959 0.44091736235919593 0.0
  outer loop
    vertex 12.335252994698829 17.01810754546809 0.0
    vertex 12.795663109838465 16.080879673162254 1.0
    vertex 12.795663109838465 16.080879673162254 0.0
  endloop
endfacet
facet normal 0.8975477032281959 0.44091736235919593 0.0
  outer loop
    vertex 12.795663109838465 16.080879673162254 1.0
    vertex 12.335252994698829 17.01810754546809 0.0
    vertex 12.335252994698829 17.01810754546809 1.0
  endloop
endfacet
facet normal 0.9810823175694795 0.19359102807852252 0.0
  outer loop
    vertex 12.795663109838465 16.080879673162254 0.0
    vertex 12.997812707782902 15.056424159828115 1.0
    vertex 12.997812707782902 15.056424159828115 0.0
  endloop
endfacet
facet normal 0.9810823175694795 0.19359102807852252 0.0
  outer loop
    vertex 12.997812707782902 15.056424159828115 1.0
    vertex 12.795663109838465 16.080879673162254 0.0
    vertex 12.795663109838465 16.080879673162254 1.0
  endloop
endfacet
facet normal 0.9977577932835919 -0.06692821484140467 0.0
  outer loop
    vertex 12.997812707782902 15.056424159828115 0.0
    vertex 12.92792562750023 14.014555955706609 1.0
    vertex 12.92792562750023 14.014555955706609 0.0
  endloop
endfacet
facet normal 0.9977577932835919 -0.06692821484140467 0.0
  outer loop
    vertex 12.92792562750023 14.014555955706609 1.0
    vertex 12.997812707782902 15.056424159828115 0.0
    vertex 12.997812707782902 15.056424159828115 1.0
  endloop
endfacet
facet normal 0.9464377242581418 -0.3228864105239951 0.0
  outer loop
    vertex 12.92792562750023 14.014555955706609 0.0
    vertex 12.59076455801785 13.026276657139997 1.0
    vertex 12.59076455801785 13.026276657139997 0.0
  endloop
endfacet
facet normal 0.9464377242581418 -0.3228864105239951 0.0
  outer loop
    vertex 12.59076455801785 13.026276657139997 1.0
    vertex 12.92792562750023 14.014555955706609 0.0
    vertex 12.92792562750023 14.014555955706609 1.0
  endloop
endfacet
facet normal 0.830619488386791 -0.5568404309243951 0.0
  outer loop
    vertex 12.59076455801785 13.026276657139997 0.0
    vertex 12.009306469035979 12.158935865116836 1.0
    vertex 12.009306469035979 12.158935865116836 0.0
  endloop
endfacet
facet normal 0.830619488386791 -0.5568404309243951 0.0
  outer loop
    vertex 12.009306469035979 12.158935865116836 1.0
    vertex 12.59076455801785 13.026276657139997 0.0
    vertex 12.59076455801785 13.026276657139997 1.0
  endloop
endfacet
facet normal 0.6581959070454854 -0.7528466961796214 0.0
  outer loop
    vertex 12.009306469035979 12.158935865116836 1.0
    vertex 11.223176768413799 11.47164142126507 0.0
    vertex 12.009306469035979 12.158935865116836 0.0
  endloop
endfacet
facet normal 0.6581959070454854 -0.7528466961796214 0.0
  outer loop
    vertex 11.223176768413799 11.47164142126507 0.0
    vertex 12.009306469035979 12.158935865116836 1.0
    vertex 11.223176768413799 11.47164142126507 1.0
  endloop
endfacet
facet normal 0.4409173623591967 -0.8975477032281954 0.0
  outer loop
    vertex 11.223176768413799 11.47164142126507 1.0
    vertex 10.285948896107968 11.011231306125435 0.0
    vertex 11.223176768413799 11.47164142126507 0.0
  endloop
endfacet
facet normal 0.4409173623591967 -0.8975477032281954 0.0
  outer loop
    vertex 10.285948896107968 11.011231306125435 0.0
    vertex 11.223176768413799 11.47164142126507 1.0
    vertex 10.285948896107968 11.011231306125435 1.0
  endloop
endfacet
facet normal 0.1935910280785204 -0.9810823175694798 0.0
  outer loop
    vertex 10.285948896107968 11.011231306125435 1.0
    vertex 9.261493382773828 10.809081708181001 0.0
    vertex 10.285948896107968 11.011231306125435 0.0
  endloop
endfacet
facet normal 0.1935910280785204 -0.9810823175694798 0.0
  outer loop
    vertex 9.261493382773828 10.809081708181001 0.0
    vertex 10.285948896107968 11.011231306125435 1.0
    vertex 9.261493382773828 10.809081708181001 1.0
  endloop
endfacet
facet normal -0.0669282148414066 -0.9977577932835917 -0.0
  outer loop
    vertex 9.261493382773828 10.809081708181001 1.0
    vertex 8.219625178652318 10.878968788463675 0.0
    vertex 9.261493382773828 10.809081708181001 0.0
  endloop
endfacet
facet normal -0.0669282148414066 -0.9977577932835917 -0.0
  outer loop
    vertex 8.219625178652318 10.878968788463675 0.0
    vertex 9.261493382773828 10.809081708181001 1.0
    vertex 8.219625178652318 10.878968788463675 1.0
  endloop
endfacet
facet normal -0.3228864105239934 -0.9464377242581422 -0.0
  outer loop
    vertex 8.219625178652318 10.878968788463675 1.0
    vertex 7.2313458800857076 11.216129857946054 0.0
    vertex 8.219625178652318 10.878968788463675 0.0
  endloop
endfacet
facet normal -0.3228864105239934 -0.9464377242581422 -0.0
  outer loop
    vertex 7.2313458800857076 11.216129857946054 0.0
    vertex 8.219625178652318 10.878968788463675 1.0
    vertex 7.2313458800857076 11.216129857946054 1.0
  endloop
endfacet
facet normal -0.556840430924396 -0.8306194883867902 -0.0
  outer loop
    vertex 7.2313458800857076 11.216129857946054 1.0
    vertex 6.364005088062548 11.797587946927925 0.0
    vertex 7.2313458800857076 11.216129857946054 0.0
  endloop
endfacet
facet normal -0.556840430924396 -0.8306194883867902 -0.0
  outer loop
    vertex 6.364005088062548 11.797587946927925 0.0
    vertex 7.2313458800857076 11.216129857946054 1.0
    vertex 6.364005088062548 11.797587946927925 1.0
  endloop
endfacet
facet normal -0.7528466961796214 -0.6581959070454854 -0.0
  outer loop
    vertex 5.676710644210784 12.583717647550104 1.0
    vertex 6.364005088062548 11.797587946927925 0.0
    vertex 6.364005088062548 11.797587946927925 1.0
  endloop
endfacet
facet normal -0.7528466961796214 -0.6581959070454854 -0.0
  outer loop
    vertex 6.364005088062548 11.797587946927925 0.0
    vertex 5.676710644210784 12.583717647550104 1.0
    vertex 5.676710644210784 12.583717647550104 0.0
  endloop
endfacet
facet normal -0.8975477032281954 -0.4409173623591967 -0.0
  outer loop
    vertex 5.216300529071148 13.520945519855935 1.0
    vertex 5.676710644210784 12.583717647550104 0.0
    vertex 5.676710644210784 12.583717647550104 1.0
  endloop
endfacet
facet normal -0.8975477032281954 -0.4409173623591967 -0.0
  outer loop
    vertex 5.676710644210784 12.583717647550104 0.0
    vertex 5.216300529071148 13.520945519855935 1.0
    vertex 5.216300529071148 13.520945519855935 0.0
  endloop
endfacet
facet normal -0.9810823175694798 -0.19359102807852 -0.0
  outer loop
    vertex 5.014150931126713 14.545401033190076 1.0
    vertex 5.216300529071148 13.520945519855935 0.0
    vertex 5.216300529071148 13.520945519855935 1.0
  endloop
endfacet
facet normal -0.9810823175694798 -0.19359102807852 -0.0
  outer loop
    vertex 5.216300529071148 13.520945519855935 0.0
    vertex 5.014150931126713 14.545401033190076 1.0
    vertex 5.014150931126713 14.545401033190076 0.0
  endloop
endfacet
facet normal -0.9977577932835919 0.06692821484140575 0.0
  outer loop
    vertex 5.084038011409388 15.587269237311585 1.0
    vertex 5.014150931126713 14.545401033190076 0.0
    vertex 5.014150931126713 14.545401033190076 1.0
  endloop
endfacet
facet normal -0.9977577932835919 0.06692821484140575 0.0
  outer loop
    vertex 5.014150931126713 14.545401033190076 0.0
    vertex 5.084038011409388 15.587269237311585 1.0
    vertex 5.084038011409388 15.587269237311585 0.0
  endloop
endfacet
facet normal -0.9464377242581421 0.3228864105239941 0.0
  outer loop
    vertex 5.421199080891766 16.575548535878195 1.0
    vertex 5.084038011409388 15.587269237311585 0.0
    vertex 5.084038011409388 15.587269237311585 1.0
  endloop
endfacet
facet normal -0.9464377242581421 0.3228864105239941 0.0
  outer loop
    vertex 5.084038011409388 15.587269237311585 0.0
    vertex 5.421199080891766 16.575548535878195 1.0
    vertex 5.421199080891766 16.575548535878195 0.0
  endloop
endfacet
facet normal -0.8306194883867902 0.556840430924396 0.0
  outer loop
    vertex 6.002657169873637 17.442889327901355 1.0
    vertex 5.421199080891766 16.575548535878195 0.0
    vertex 5.421199080891766 16.575548535878195 1.0
  endloop
endfacet
facet normal -0.8306194883867902 0.556840430924396 0.0
  outer loop
    vertex 5.421199080891766 16.575548535878195 0.0
    vertex 6.002657169873637 17.442889327901355 1.0
    vertex 6.002657169873637 17.442889327901355 0.0
  endloop
endfacet
facet normal -0.6581959070454851 0.7528466961796214 0.0
  outer loop
    vertex 6.002657169873637 17.442889327901355 1.0
    vertex 6.788786870495814 18.130183771753117 0.0
    vertex 6.002657169873637 17.442889327901355 0.0
  endloop
endfacet
facet normal -0.6581959070454851 0.7528466961796214 0.0
  outer loop
    vertex 6.788786870495814 18.130183771753117 0.0
    vertex 6.002657169873637 17.442889327901355 1.0
    vertex 6.788786870495814 18.130183771753117 1.0
  endloop
endfacet
facet normal -0.4409173623591977 0.8975477032281951 0.0
  outer loop
    vertex 6.788786870495814 18.130183771753117 1.0
    vertex 7.726014742801648 18.590593886892755 0.0
    vertex 6.788786870495814 18.130183771753117 0.0
  endloop
endfacet
facet normal -0.4409173623591977 0.8975477032281951 0.0
  outer loop
    vertex 7.726014742801648 18.590593886892755 0.0
    vertex 6.788786870495814 18.130183771753117 1.0
    vertex 7.726014742801648 18.590593886892755 1.0
  endloop
endfacet
facet normal -0.1935910280785204 0.9810823175694798 0.0
  outer loop
    vertex 7.726014742801648 18.590593886892755 1.0
    vertex 8.750470256135788 18.79274348483719 0.0
    vertex 7.726014742801648 18.590593886892755 0.0
  endloop
endfacet
facet normal -0.1935910280785204 0.9810823175694798 0.0
  outer loop
    vertex 8.750470256135788 18.79274348483719 0.0
    vertex 7.726014742801648 18.590593886892755 1.0
    vertex 8.750470256135788 18.79274348483719 1.0
  endloop
endfacet
facet normal 0.06692821484140668 0.9977577932835917 0.0
  outer loop
    vertex 8.750470256135788 18.79274348483719 1.0
    vertex 9.792338460257298 18.722856404554516 0.0
    vertex 8.750470256135788 18.79274348483719 0.0
  endloop
endfacet
facet normal 0.06692821484140668 0.9977577932835917 0.0
  outer loop
    vertex 9.792338460257298 18.722856404554516 0.0
    vertex 8.750470256135788 18.79274348483719 1.0
    vertex 9.792338460257298 18.722856404554516 1.0
  endloop
endfacet
facet normal 0.3228864105239938 0.9464377242581422 0.0
  outer loop
    vertex 9.792338460257298 18.722856404554516 1.0
    vertex 10.780617758823906 18.38569533507214 0.0
    vertex 9.792338460257298 18.722856404554516 0.0
  endloop
endfacet
facet normal 0.3228864105239938 0.9464377242581422 0.0
  outer loop
    vertex 10.780617758823906 18.38569533507214 0.0
    vertex 9.792338460257298 18.722856404554516 1.0
    vertex 10.780617758823906 18.38569533507214 1.0
  endloop
endfacet
facet normal 0.5568404309243951 0.830619488386791 0.0
  outer loop
    vertex 10.780617758823906 18.38569533507214 1.0
    vertex 11.647958550847068 17.804237246090267 0.0
    vertex 10.780617758823906 18.38569533507214 0.0
  endloop
endfacet
facet normal 0.5568404309243951 0.830619488386791 0.0
  outer loop
    vertex 11.647958550847068 17.804237246090267 0.0
    vertex 10.780617758823906 18.38569533507214 1.0
    vertex 11.647958550847068 17.804237246090267 1.0
  endloop
endfacet
facet normal 0.7528466961796214 0.6581959070454851 0.0
  outer loop
    vertex 11.647958550847068 17.804237246090267 0.0
    vertex 12.335252994698829 17.01810754546809 1.0
    vertex 12.335252994698829 17.01810754546809 0.0
  endloop
endfacet
facet normal 0.7528466961796214 0.6581959070454851 0.0
  outer loop
    vertex 12.335252994698829 17.01810754546809 1.0
    vertex 11.647958550847068 17.804237246090267 0.0
    vertex 11.647958550847068 17.804237246090267 1.0
  endloop
endfacet
facet normal 0.0 0.0 1.0
  outer loop
    vertex 7.074130166876672 14.283274506304055 4.0
    vertex 7.074130166876672 15.318550686714136 4.0
    vertex 7.005981819454808 14.800912596509095 4.0
  endloop
endfacet
facet normal 0.0 0.0 1.0
  outer loop
    vertex 7.074130166876672 15.318550686714136 4.0
    vertex 7.074130166876672 14.283274506304055 4.0
    vertex 7.2739310118859315 13.800912596509095 4.0
  endloop
endfacet
facet normal 0.0 0.0 1.0
  outer loop
    vertex 7.074130166876672 15.318550686714136 4.0
    vertex 7.2739310118859315 13.800912596509095 4.0
    vertex 7.273931011885931 15.800912596509097 4.0
  endloop
endfacet
facet normal 0.0 0.0 1.0
  outer loop
    vertex 7.273931011885931 15.800912596509097 4.0
    vertex 7.2739310118859315 13.800912596509095 4.0
    vertex 7.591768257081712 16.21512615888219 4.0
  endloop
endfacet
facet normal 0.0 0.0 1.0
  outer loop
    vertex 7.591768257081712 16.21512615888219 4.0
    vertex 7.2739310118859315 13.800912596509095 4.0
    vertex 7.591768257081714 13.386699034136 4.0
  endloop
endfacet
facet normal 0.0 0.0 1.0
  outer loop
    vertex 7.591768257081712 16.21512615888219 4.0
    vertex 7.591768257081714 13.386699034136 4.0
    vertex 8.005981819454808 16.53296340407797 4.0
  endloop
endfacet
facet normal 0.0 0.0 1.0
  outer loop
    vertex 8.005981819454808 16.53296340407797 4.0
    vertex 7.591768257081714 13.386699034136 4.0
    vertex 8.005981819454808 13.068861788940216 4.0
  endloop
endfacet
facet normal 0.0 0.0 1.0
  outer loop
    vertex 8.005981819454808 16.53296340407797 4.0
    vertex 8.005981819454808 13.068861788940216 4.0
    vertex 8.488343729249765 16.732764249087232 4.0
  endloop
endfacet
facet normal 0.0 0.0 1.0
  outer loop
    vertex 8.488343729249765 16.732764249087232 4.0
    vertex 8.005981819454808 13.068861788940216 4.0
    vertex 8.488343729249767 12.869060943930958 4.0
  endloop
endfacet
facet normal 0.0 0.0 1.0
  outer loop
    vertex 8.488343729249765 16.732764249087232 4.0
    vertex 8.488343729249767 12.869060943930958 4.0
    vertex 9.005981819454808 16.800912596509097 4.0
  endloop
endfacet
facet normal 0.0 0.0 1.0
  outer loop
    vertex 9.005981819454808 16.800912596509097 4.0
    vertex 8.488343729249767 12.869060943930958 4.0
    vertex 9.005981819454808 12.800912596509095 4.0
  endloop
endfacet
facet normal 0.0 0.0 1.0
  outer loop
    vertex 9.005981819454808 16.800912596509097 4.0
    vertex 9.005981819454808 12.800912596509095 4.0
    vertex 9.52361990965985 12.869060943930958 4.0
  endloop
endfacet
facet normal 0.0 0.0 1.0
  outer loop
    vertex 9.005981819454808 16.800912596509097 4.0
    vertex 9.52361990965985 12.869060943930958 4.0
    vertex 9.52361990965985 16.732764249087232 4.0
  endloop
endfacet
facet normal 0.0 0.0 1.0
  outer loop
    vertex 9.52361990965985 16.732764249087232 4.0
    vertex 9.52361990965985 12.869060943930958 4.0
    vertex 10.005981819454806 16.532963404077975 4.0
  endloop
endfacet
facet normal 0.0 0.0 1.0
  outer loop
    vertex 10.005981819454806 16.532963404077975 4.0
    vertex 9.52361990965985 12.869060943930958 4.0
    vertex 10.005981819454808 13.06886178894022 4.0
  endloop
endfacet
facet normal 0.0 0.0 1.0
  outer loop
    vertex 10.005981819454806 16.532963404077975 4.0
    vertex 10.005981819454808 13.06886178894022 4.0
    vertex 10.420195381827902 16.215126158882192 4.0
  endloop
endfacet
facet normal 0.0 0.0 1.0
  outer loop
    vertex 10.420195381827902 16.215126158882192 4.0
    vertex 10.005981819454808 13.06886178894022 4.0
    vertex 10.420195381827902 13.386699034136 4.0
  endloop
endfacet
facet normal 0.0 0.0 1.0
  outer loop
    vertex 10.420195381827902 16.215126158882192 4.0
    vertex 10.420195381827902 13.386699034136 4.0
    vertex 10.738032627023687 13.800912596509095 4.0
  endloop
endfacet
facet normal 0.0 0.0 1.0
  outer loop
    vertex 10.420195381827902 16.215126158882192 4.0
    vertex 10.738032627023687 13.800912596509095 4.0
    vertex 10.738032627023685 15.800912596509097 4.0
  endloop
endfacet
facet normal 0.0 0.0 1.0
  outer loop
    vertex 10.738032627023685 15.800912596509097 4.0
    vertex 10.738032627023687 13.800912596509095 4.0
    vertex 10.937833472032944 15.318550686714138 4.0
  endloop
endfacet
facet normal 0.0 0.0 1.0
  outer loop
    vertex 10.937833472032944 15.318550686714138 4.0
    vertex 10.738032627023687 13.800912596509095 4.0
    vertex 10.937833472032946 14.283274506304055 4.0
  endloop
endfacet
facet normal 0.0 0.0 1.0
  outer loop
    vertex 10.937833472032944 15.318550686714138 4.0
    vertex 10.937833472032946 14.283274506304055 4.0
    vertex 11.005981819454806 14.800912596509095 4.0
  endloop
endfacet
facet normal 0.9238795325112873 -0.3826834323650887 0.0
  outer loop
    vertex 10.937833472032946 14.283274506304055 1.0
    vertex 10.738032627023687 13.800912596509095 4.0
    vertex 10.738032627023687 13.800912596509095 1.0
  endloop
endfacet
facet normal 0.9238795325112873 -0.3826834323650887 0.0
  outer loop
    vertex 10.738032627023687 13.800912596509095 4.0
    vertex 10.937833472032946 14.283274506304055 1.0
    vertex 10.937833472032946 14.283274506304055 4.0
  endloop
endfacet
facet normal 0.9914448613738109 -0.13052619222004763 0.0
  outer loop
    vertex 11.005981819454806 14.800912596509095 1.0
    vertex 10.937833472032946 14.283274506304055 4.0
    vertex 10.937833472032946 14.283274506304055 1.0
  endloop
endfacet
facet normal 0.9914448613738109 -0.13052619222004763 0.0
  outer loop
    vertex 10.937833472032946 14.283274506304055 4.0
    vertex 11.005981819454806 14.800912596509095 1.0
    vertex 11.005981819454806 14.800912596509095 4.0
  endloop
endfacet
facet normal 0.9914448613738106 0.13052619222005132 0.0
  outer loop
    vertex 10.937833472032944 15.318550686714138 1.0
    vertex 11.005981819454806 14.800912596509095 4.0
    vertex 11.005981819454806 14.800912596509095 1.0
  endloop
endfacet
facet normal 0.9914448613738106 0.13052619222005132 0.0
  outer loop
    vertex 11.005981819454806 14.800912596509095 4.0
    vertex 10.937833472032944 15.318550686714138 1.0
    vertex 10.937833472032944 15.318550686714138 4.0
  endloop
endfacet
facet normal 0.9238795325112866 0.3826834323650902 0.0
  outer loop
    vertex 10.738032627023685 15.800912596509097 1.0
    vertex 10.937833472032944 15.318550686714138 4.0
    vertex 10.937833472032944 15.318550686714138 1.0
  endloop
endfacet
facet normal 0.9238795325112866 0.3826834323650902 0.0
  outer loop
    vertex 10.937833472032944 15.318550686714138 4.0
    vertex 10.738032627023685 15.800912596509097 1.0
    vertex 10.738032627023685 15.800912596509097 4.0
  endloop
endfacet
facet normal 0.7933533402912362 0.6087614290087197 0.0
  outer loop
    vertex 10.420195381827902 16.215126158882192 1.0
    vertex 10.738032627023685 15.800912596509097 4.0
    vertex 10.738032627023685 15.800912596509097 1.0
  endloop
endfacet
facet normal 0.7933533402912362 0.6087614290087197 0.0
  outer loop
    vertex 10.738032627023685 15.800912596509097 4.0
    vertex 10.420195381827902 16.215126158882192 1.0
    vertex 10.420195381827902 16.215126158882192 4.0
  endloop
endfacet
facet normal 0.6087614290087197 0.7933533402912362 0.0
  outer loop
    vertex 10.005981819454806 16.532963404077975 4.0
    vertex 10.420195381827902 16.215126158882192 1.0
    vertex 10.005981819454806 16.532963404077975 1.0
  endloop
endfacet
facet normal 0.6087614290087197 0.7933533402912362 0.0
  outer loop
    vertex 10.420195381827902 16.215126158882192 1.0
    vertex 10.005981819454806 16.532963404077975 4.0
    vertex 10.420195381827902 16.215126158882192 4.0
  endloop
endfacet
facet normal 0.3826834323650902 0.9238795325112866 0.0
  outer loop
    vertex 9.52361990965985 16.732764249087232 4.0
    vertex 10.005981819454806 16.532963404077975 1.0
    vertex 9.52361990965985 16.732764249087232 1.0
  endloop
endfacet
facet normal 0.3826834323650902 0.9238795325112866 0.0
  outer loop
    vertex 10.005981819454806 16.532963404077975 1.0
    vertex 9.52361990965985 16.732764249087232 4.0
    vertex 10.005981819454806 16.532963404077975 4.0
  endloop
endfacet
facet normal 0.13052619222005188 0.9914448613738104 0.0
  outer loop
    vertex 9.005981819454808 16.800912596509097 4.0
    vertex 9.52361990965985 16.732764249087232 1.0
    vertex 9.005981819454808 16.800912596509097 1.0
  endloop
endfacet
facet normal 0.13052619222005188 0.9914448613738104 0.0
  outer loop
    vertex 9.52361990965985 16.732764249087232 1.0
    vertex 9.005981819454808 16.800912596509097 4.0
    vertex 9.52361990965985 16.732764249087232 4.0
  endloop
endfacet
facet normal -0.13052619222005557 0.99144486137381 0.0
  outer loop
    vertex 8.488343729249765 16.732764249087232 4.0
    vertex 9.005981819454808 16.800912596509097 1.0
    vertex 8.488343729249765 16.732764249087232 1.0
  endloop
endfacet
facet normal -0.13052619222005557 0.99144486137381 0.0
  outer loop
    vertex 9.005981819454808 16.800912596509097 1.0
    vertex 8.488343729249765 16.732764249087232 4.0
    vertex 9.005981819454808 16.800912596509097 4.0
  endloop
endfacet
facet normal -0.3826834323650902 0.9238795325112866 0.0
  outer loop
    vertex 8.005981819454808 16.53296340407797 4.0
    vertex 8.488343729249765 16.732764249087232 1.0
    vertex 8.005981819454808 16.53296340407797 1.0
  endloop
endfacet
facet normal -0.3826834323650902 0.9238795325112866 0.0
  outer loop
    vertex 8.488343729249765 16.732764249087232 1.0
    vertex 8.005981819454808 16.53296340407797 4.0
    vertex 8.488343729249765 16.732764249087232 4.0
  endloop
endfacet
facet normal -0.6087614290087207 0.7933533402912354 0.0
  outer loop
    vertex 7.591768257081712 16.21512615888219 4.0
    vertex 8.005981819454808 16.53296340407797 1.0
    vertex 7.591768257081712 16.21512615888219 1.0
  endloop
endfacet
facet normal -0.6087614290087207 0.7933533402912354 0.0
  outer loop
    vertex 8.005981819454808 16.53296340407797 1.0
    vertex 7.591768257081712 16.21512615888219 4.0
    vertex 8.005981819454808 16.53296340407797 4.0
  endloop
endfacet
facet normal -0.7933533402912344 0.6087614290087217 0.0
  outer loop
    vertex 7.591768257081712 16.21512615888219 4.0
    vertex 7.273931011885931 15.800912596509097 1.0
    vertex 7.273931011885931 15.800912596509097 4.0
  endloop
endfacet
facet normal -0.7933533402912344 0.6087614290087217 0.0
  outer loop
    vertex 7.273931011885931 15.800912596509097 1.0
    vertex 7.591768257081712 16.21512615888219 4.0
    vertex 7.591768257081712 16.21512615888219 1.0
  endloop
endfacet
facet normal -0.9238795325112873 0.3826834323650887 0.0
  outer loop
    vertex 7.273931011885931 15.800912596509097 4.0
    vertex 7.074130166876672 15.318550686714136 1.0
    vertex 7.074130166876672 15.318550686714136 4.0
  endloop
endfacet
facet normal -0.9238795325112873 0.3826834323650887 0.0
  outer loop
    vertex 7.074130166876672 15.318550686714136 1.0
    vertex 7.273931011885931 15.800912596509097 4.0
    vertex 7.273931011885931 15.800912596509097 1.0
  endloop
endfacet
facet normal -0.9914448613738104 0.13052619222005188 0.0
  outer loop
    vertex 7.074130166876672 15.318550686714136 4.0
    vertex 7.005981819454808 14.800912596509095 1.0
    vertex 7.005981819454808 14.800912596509095 4.0
  endloop
endfacet
facet normal -0.9914448613738104 0.13052619222005188 0.0
  outer loop
    vertex 7.005981819454808 14.800912596509095 1.0
    vertex 7.074130166876672 15.318550686714136 4.0
    vertex 7.074130166876672 15.318550686714136 1.0
  endloop
endfacet
facet normal -0.9914448613738104 -0.13052619222005188 -0.0
  outer loop
    vertex 7.005981819454808 14.800912596509095 4.0
    vertex 7.074130166876672 14.283274506304055 1.0
    vertex 7.074130166876672 14.283274506304055 4.0
  endloop
endfacet
facet normal -0.9914448613738104 -0.13052619222005188 -0.0
  outer loop
    vertex 7.074130166876672 14.283274506304055 1.0
    vertex 7.005981819454808 14.800912596509095 4.0
    vertex 7.005981819454808 14.800912596509095 1.0
  endloop
endfacet
facet normal -0.9238795325112866 -0.3826834323650906 -0.0
  outer loop
    vertex 7.074130166876672 14.283274506304055 4.0
    vertex 7.2739310118859315 13.800912596509095 1.0
    vertex 7.2739310118859315 13.800912596509095 4.0
  endloop
endfacet
facet normal -0.9238795325112866 -0.3826834323650906 -0.0
  outer loop
    vertex 7.2739310118859315 13.800912596509095 1.0
    vertex 7.074130166876672 14.283274506304055 4.0
    vertex 7.074130166876672 14.283274506304055 1.0
  endloop
endfacet
facet normal -0.7933533402912344 -0.6087614290087217 -0.0
  outer loop
    vertex 7.2739310118859315 13.800912596509095 4.0
    vertex 7.591768257081714 13.386699034136 1.0
    vertex 7.591768257081714 13.386699034136 4.0
  endloop
endfacet
facet normal -0.7933533402912344 -0.6087614290087217 -0.0
  outer loop
    vertex 7.591768257081714 13.386699034136 1.0
    vertex 7.2739310118859315 13.800912596509095 4.0
    vertex 7.2739310118859315 13.800912596509095 1.0
  endloop
endfacet
facet normal -0.6087614290087233 -0.7933533402912331 -0.0
  outer loop
    vertex 8.005981819454808 13.068861788940216 4.0
    vertex 7.591768257081714 13.386699034136 1.0
    vertex 8.005981819454808 13.068861788940216 1.0
  endloop
endfacet
facet normal -0.6087614290087233 -0.7933533402912331 -0.0
  outer loop
    vertex 7.591768257081714 13.386699034136 1.0
    vertex 8.005981819454808 13.068861788940216 4.0
    vertex 7.591768257081714 13.386699034136 4.0
  endloop
endfacet
facet normal -0.3826834323650895 -0.923879532511287 -0.0
  outer loop
    vertex 8.488343729249767 12.869060943930958 4.0
    vertex 8.005981819454808 13.068861788940216 1.0
    vertex 8.488343729249767 12.869060943930958 1.0
  endloop
endfacet
facet normal -0.3826834323650895 -0.923879532511287 -0.0
  outer loop
    vertex 8.005981819454808 13.068861788940216 1.0
    vertex 8.488343729249767 12.869060943930958 4.0
    vertex 8.005981819454808 13.068861788940216 4.0
  endloop
endfacet
facet normal -0.13052619222005188 -0.9914448613738104 -0.0
  outer loop
    vertex 9.005981819454808 12.800912596509095 4.0
    vertex 8.488343729249767 12.869060943930958 1.0
    vertex 9.005981819454808 12.800912596509095 1.0
  endloop
endfacet
facet normal -0.13052619222005188 -0.9914448613738104 -0.0
  outer loop
    vertex 8.488343729249767 12.869060943930958 1.0
    vertex 9.005981819454808 12.800912596509095 4.0
    vertex 8.488343729249767 12.869060943930958 4.0
  endloop
endfacet
facet normal 0.13052619222005157 -0.9914448613738104 0.0
  outer loop
    vertex 9.52361990965985 12.869060943930958 4.0
    vertex 9.005981819454808 12.800912596509095 1.0
    vertex 9.52361990965985 12.869060943930958 1.0
  endloop
endfacet
facet normal 0.13052619222005157 -0.9914448613738104 0.0
  outer loop
    vertex 9.005981819454808 12.800912596509095 1.0
    vertex 9.52361990965985 12.869060943930958 4.0
    vertex 9.005981819454808 12.800912596509095 4.0
  endloop
endfacet
facet normal 0.38268343236509317 -0.9238795325112854 0.0
  outer loop
    vertex 10.005981819454808 13.06886178894022 4.0
    vertex 9.52361990965985 12.869060943930958 1.0
    vertex 10.005981819454808 13.06886178894022 1.0
  endloop
endfacet
facet normal 0.38268343236509317 -0.9238795325112854 0.0
  outer loop
    vertex 9.52361990965985 12.869060943930958 1.0
    vertex 10.005981819454808 13.06886178894022 4.0
    vertex 9.52361990965985 12.869060943930958 4.0
  endloop
endfacet
facet normal 0.6087614290087217 -0.7933533402912344 0.0
  outer loop
    vertex 10.420195381827902 13.386699034136 4.0
    vertex 10.005981819454808 13.06886178894022 1.0
    vertex 10.420195381827902 13.386699034136 1.0
  endloop
endfacet
facet normal 0.6087614290087217 -0.7933533402912344 0.0
  outer loop
    vertex 10.005981819454808 13.06886178894022 1.0
    vertex 10.420195381827902 13.386699034136 4.0
    vertex 10.005981819454808 13.06886178894022 4.0
  endloop
endfacet
facet normal 0.7933533402912323 -0.6087614290087243 0.0
  outer loop
    vertex 10.738032627023687 13.800912596509095 1.0
    vertex 10.420195381827902 13.386699034136 4.0
    vertex 10.420195381827902 13.386699034136 1.0
  endloop
endfacet
facet normal 0.7933533402912323 -0.6087614290087243 0.0
  outer loop
    vertex 10.420195381827902 13.386699034136 4.0
    vertex 10.738032627023687 13.800912596509095 1.0
    vertex 10.738032627023687 13.800912596509095 4.0
  endloop
endfacet
endsolid 9_1
